<svg xmlns="http://www.w3.org/2000/svg" viewBox="0 0 200 299.0292"><path d="M52.01,299.0292C18.7688,189.4952,89.0061,149.5015,89.0061,149.5015c-4.9143,58.4483,28.3005,103.9837,28.3005,103.9837,12.216-3.6857,35.5326-20.9118,35.5326-20.9118,0,20.9118-12.3031,66.43-12.3031,66.43s43.07-33.302,56.6272-88.6135c13.54-55.3116-25.7911-110.841-25.7911-110.841A148.32,148.32,0,0,1,134.55,206.6167a21.221,21.221,0,0,0,3.2239-4.9665c4.6616-9.3232,12.1462-33.5546,7.7635-89.6678C139.3685,33.2148,67.9985,0,67.9985,0,74.15,47.9924,55.7041,59.05,12.4952,150.1463-30.7137,241.2257,52.01,299.0292,52.01,299.0292Z" fill="#de3b3c"/></svg>