<svg version="1.1" xmlns="http://www.w3.org/2000/svg" xmlns:xlink="http://www.w3.org/1999/xlink" x="0px" y="0px" viewBox="0 0 20 20" xml:space="preserve">
<path d="M18.9,0h-6.4c-0.6,0-1.1,0.5-1.1,1.1v6.4c0,0.6,0.5,1.1,1.1,1.1h6.4c0.6,0,1.1-0.5,1.1-1.1V1.1C20,0.5,19.5,0,18.9,0z" fill="#f88c19"/>
<path d="M7.5,0H1.1C0.5,0,0,0.5,0,1.1v6.4c0,0.6,0.5,1.1,1.1,1.1h6.4c0.6,0,1.1-0.5,1.1-1.1V1.1C8.6,0.5,8.1,0,7.5,0z" fill="#f88c19"/>
<path d="M18.9,11.4h-6.4c-0.6,0-1.1,0.5-1.1,1.1v6.4c0,0.6,0.5,1.1,1.1,1.1h6.4c0.6,0,1.1-0.5,1.1-1.1v-6.4C20,11.9,19.5,11.4,18.9,11.4z" fill="#f88c19"/>
<path d="M7.5,11.4H1.1c-0.6,0-1.1,0.5-1.1,1.1v6.4C0,19.5,0.5,20,1.1,20h6.4c0.6,0,1.1-0.5,1.1-1.1v-6.4C8.6,11.9,8.1,11.4,7.5,11.4z" fill="#f88c19"/>
</svg>
