<svg version="1.1" xmlns="http://www.w3.org/2000/svg" xmlns:xlink="http://www.w3.org/1999/xlink" x="0px" y="0px" viewBox="0 0 20 20" xml:space="preserve">
<path d="M19,17.3H5.6c-0.6,0-1-0.4-1-1c0-0.6,0.4-1,1-1H19c0.6,0,1,0.4,1,1C20,16.8,19.6,17.3,19,17.3L19,17.3z M19,17.3" fill="#f88c19"/>
<path d="M19,11H5.6c-0.6,0-1-0.4-1-1c0-0.6,0.4-1,1-1H19c0.6,0,1,0.4,1,1C20,10.6,19.6,11,19,11L19,11z M19,11" fill="#f88c19"/>
<path d="M19,4.7H5.6c-0.6,0-1-0.4-1-1c0-0.6,0.4-1,1-1H19c0.6,0,1,0.4,1,1C20,4.3,19.6,4.7,19,4.7L19,4.7z M19,4.7" fill="#f88c19"/>
<path d="M2.7,3.8c0,0.7-0.6,1.3-1.3,1.3C0.6,5.2,0,4.6,0,3.8c0-0.7,0.6-1.3,1.3-1.3C2.1,2.5,2.7,3.1,2.7,3.8L2.7,3.8z M2.7,3.8" fill="#f88c19"/>
<path d="M2.7,10c0,0.7-0.6,1.3-1.3,1.3C0.6,11.3,0,10.7,0,10c0-0.7,0.6-1.3,1.3-1.3C2.1,8.7,2.7,9.3,2.7,10L2.7,10z M2.7,10" fill="#f88c19"/>
<path d="M2.7,16.2c0,0.7-0.6,1.3-1.3,1.3c-0.7,0-1.3-0.6-1.3-1.3c0-0.7,0.6-1.3,1.3-1.3C2.1,14.8,2.7,15.4,2.7,16.2L2.7,16.2zM2.7,16.2" fill="#f88c19"/>
</svg>
