<svg width="0" height="0" style="position:absolute"><symbol fill="none" viewBox="0 0 16 22" id="adress" xmlns="http://www.w3.org/2000/svg"><path d="M13.555 11.92c-.699 1.416-1.646 2.827-2.614 4.093A41.963 41.963 0 018 19.44a41.968 41.968 0 01-2.941-3.427c-.968-1.266-1.915-2.677-2.614-4.093C1.74 10.49 1.333 9.15 1.333 8a6.667 6.667 0 0113.334 0c0 1.15-.407 2.49-1.112 3.92zM8 21.333S16 13.752 16 8A8 8 0 000 8c0 5.752 8 13.333 8 13.333z" fill="#3A4097"/><path d="M8 10.667a2.667 2.667 0 110-5.334 2.667 2.667 0 010 5.334zM8 12a4 4 0 100-8 4 4 0 000 8z" fill="#3A4097"/></symbol><symbol fill="none" viewBox="0 0 28 28" id="burger" xmlns="http://www.w3.org/2000/svg"><path stroke="#3A4097" stroke-width="4" stroke-linecap="round" d="M2 2h24M2 14h24M2 26h24"/></symbol><symbol fill="none" viewBox="0 0 26 27" id="cart" xmlns="http://www.w3.org/2000/svg"><path d="M22.386 20.197H6.354a1.676 1.676 0 01-1.605-1.739v0a1.695 1.695 0 011.423-1.728l16.296-2.018L25 3.742H9.77" stroke="#3A4097" stroke-width="2" stroke-linecap="round" stroke-linejoin="round"/><path d="M1 1h2.446a1.033 1.033 0 01.987.84l3.236 14.53" stroke="#3A4097" stroke-width="2" stroke-linecap="round" stroke-linejoin="round"/><path d="M7.85 25.134a1.371 1.371 0 100-2.743 1.371 1.371 0 000 2.743zm12.068 0a1.371 1.371 0 100-2.743 1.371 1.371 0 000 2.743z" stroke="#3A4097" stroke-width="2" stroke-linejoin="round"/></symbol><symbol fill="none" viewBox="0 0 22 23" id="cart-icon" xmlns="http://www.w3.org/2000/svg"><path d="M18.822 16.998H5.462a1.397 1.397 0 01-1.337-1.45v0a1.413 1.413 0 011.185-1.44l13.58-1.681L21 3.285H8.309" stroke="#fff" stroke-width="2" stroke-linecap="round" stroke-linejoin="round"/><path d="M1 1h2.038a.86.86 0 01.823.7l2.697 12.108" stroke="#fff" stroke-width="2" stroke-linecap="round" stroke-linejoin="round"/><path d="M6.71 21.112a1.143 1.143 0 100-2.286 1.143 1.143 0 000 2.286zm10.055 0a1.143 1.143 0 100-2.286 1.143 1.143 0 000 2.286z" stroke="#fff" stroke-width="2" stroke-linejoin="round"/></symbol><symbol fill="none" viewBox="0 0 20 24" id="delete-icon" xmlns="http://www.w3.org/2000/svg"><path d="M7.166 8.833h.667v9h-.667v-9zm5 0h.667v9h-.667v-9z" fill="#414146" stroke="#414146"/><path d="M2.167 5v-.5H.5v-.667h19V4.5h-1.667v17.167a1.167 1.167 0 01-1.166 1.166H3.333a1.167 1.167 0 01-1.166-1.166V5zm.666 16.667v.5h14.334V4.5H2.833v17.167zM7.166.5h5.667v.667H7.166V.5z" fill="#414146" stroke="#414146"/></symbol><symbol viewBox="0 0 20 19" id="favorite" xmlns="http://www.w3.org/2000/svg"><path d="M19.61 3.333c.909 2.806.149 5.662-1.453 7.814-1.058 1.46-2.322 2.717-3.614 3.816-1.188 1.107-3.848 3.296-4.554 3.357-.623-.119-1.322-.824-1.817-1.186C5.392 15.02 2.399 12.45.882 9.64c-1.273-2.698-1.275-6.035.705-8.103 2.568-2.315 6.439-1.863 8.402.555A5.683 5.683 0 0111.935.478c3.12-1.245 6.366.024 7.675 2.855z"/></symbol><symbol fill="none" viewBox="0 0 26 27" id="name-input-icon" xmlns="http://www.w3.org/2000/svg"><path d="M13 13.5c3.575 0 6.5-2.895 6.5-6.432C19.5 3.53 16.575.635 13 .635S6.5 3.53 6.5 7.068c0 3.537 2.925 6.432 6.5 6.432zm0 3.216c-4.306 0-13 2.171-13 6.432v3.217h26v-3.216c0-4.262-8.694-6.433-13-6.433z" fill="#ACACAC" fill-opacity=".4"/></symbol><symbol fill="none" viewBox="0 0 20 20" id="phone" xmlns="http://www.w3.org/2000/svg"><path d="M18.178 14.059c-.746-.767-2.868-2.204-4.259-2.204-.322 0-.603.071-.833.22-.68.434-1.222.772-1.483.772-.143 0-.297-.128-.634-.42l-.056-.05c-.936-.814-1.135-1.023-1.498-1.402l-.092-.097c-.067-.066-.123-.128-.18-.184-.316-.327-.547-.562-1.36-1.483l-.035-.04c-.389-.44-.645-.727-.66-.936-.015-.205.164-.537.619-1.156.552-.746.572-1.667.066-2.735C7.37 3.5 6.71 2.692 6.127 1.982l-.051-.062C5.575 1.307 4.992 1 4.342 1c-.72 0-1.319.389-1.636.593-.025.015-.05.036-.076.051-.711.45-1.227 1.069-1.422 1.698-.291.946-.485 2.173.91 4.724 1.207 2.209 2.301 3.692 4.04 5.476 1.636 1.677 2.362 2.22 3.988 3.395 1.81 1.309 3.548 2.06 4.765 2.06 1.13 0 2.02 0 3.288-1.528 1.329-1.606.777-2.587-.02-3.41z" stroke="currentColor" stroke-width="1.4"/></symbol><symbol fill="none" viewBox="0 0 24 24" id="phone-input-icon" xmlns="http://www.w3.org/2000/svg"><path d="M21.953 17.129c-.954-.97-3.666-2.787-5.443-2.787-.412 0-.771.09-1.065.278-.87.55-1.562.977-1.895.977-.183 0-.38-.162-.81-.53l-.072-.065c-1.196-1.028-1.45-1.293-1.915-1.772l-.117-.123c-.085-.084-.157-.162-.229-.233-.405-.414-.7-.71-1.738-1.875l-.046-.052c-.496-.556-.823-.918-.843-1.183-.02-.258.21-.679.79-1.461.707-.944.733-2.108.086-3.46-.516-1.066-1.36-2.088-2.104-2.987l-.065-.077C5.847 1.003 5.1.615 4.272.615c-.922 0-1.686.491-2.091.75-.033.02-.066.045-.098.064C1.174 2 .514 2.781.266 3.576c-.372 1.196-.62 2.748 1.163 5.975 1.542 2.793 2.94 4.668 5.162 6.925 2.091 2.12 3.019 2.806 5.097 4.293 2.313 1.656 4.534 2.606 6.09 2.606 1.444 0 2.58 0 4.2-1.933 1.7-2.03.994-3.272-.025-4.313z" fill="#ACACAC" fill-opacity=".4"/></symbol><symbol fill="none" viewBox="0 0 8 8" id="popup-close" xmlns="http://www.w3.org/2000/svg"><path d="M.536.464a.625.625 0 01.883 0l2.652 2.652L6.723.464a.625.625 0 11.884.884L4.955 4l2.652 2.652a.625.625 0 11-.884.884L4.07 4.884 1.42 7.536a.625.625 0 01-.883-.884L3.187 4 .536 1.348a.625.625 0 010-.884z" fill="#727385"/></symbol><symbol fill="none" viewBox="0 0 12 2" id="qty-minus" xmlns="http://www.w3.org/2000/svg"><path d="M.857 0h10.286S12 0 12 .8s-.857.8-.857.8H.857S0 1.6 0 .8.857 0 .857 0z" fill="#727385"/></symbol><symbol fill="none" viewBox="0 0 12 12" id="qty-plus" xmlns="http://www.w3.org/2000/svg"><path d="M6 0a.75.75 0 01.75.75v4.5h4.5a.75.75 0 110 1.5h-4.5v4.5a.75.75 0 11-1.5 0v-4.5H.75a.75.75 0 010-1.5h4.5V.75A.75.75 0 016 0z" fill="#727385"/></symbol><symbol fill="none" viewBox="0 0 20 21" id="search" xmlns="http://www.w3.org/2000/svg"><path d="M8.135 1.283a6.852 6.852 0 11-6.846 6.852 6.883 6.883 0 016.846-6.852zm0-1.283a8.135 8.135 0 100 16.27 8.135 8.135 0 000-16.27zm11.683 18.955l-4.612-4.644-.888.883 4.612 4.643a.626.626 0 10.888-.882z" fill="#A4A4A4"/></symbol><symbol fill="none" viewBox="0 0 20 18" id="sort" xmlns="http://www.w3.org/2000/svg"><path fill-rule="evenodd" clip-rule="evenodd" d="M14.375 17.5a.625.625 0 00.625-.625V2.135l3.932 3.933a.626.626 0 10.885-.885l-5-5a.624.624 0 00-.885 0l-5 5a.626.626 0 00.886.885l3.932-3.933v14.74a.625.625 0 00.625.625zM5.625 0a.625.625 0 01.625.625v14.74l3.932-3.933a.626.626 0 01.885.885l-5 5a.625.625 0 01-.884 0l-5-5a.626.626 0 11.885-.885L5 15.366V.626a.625.625 0 01.625-.625z" fill="#414146"/></symbol><symbol fill="none" viewBox="0 0 6 4" id="submenu-marker" xmlns="http://www.w3.org/2000/svg"><path d="M5.514.387L2.757 3.415 0 .387h5.514z" fill="#727385"/></symbol><symbol fill="none" viewBox="0 0 30 29" id="tg-icon" xmlns="http://www.w3.org/2000/svg"><path d="M7.186 15.05l16.039-8.595-12.038 11.568-.567 5.292 3.279-3.172 10.708 8.71L30 0 0 12.482l7.186 2.568z" fill="currentColor"/></symbol><symbol fill="none" viewBox="0 0 30 30" id="viber-icon" xmlns="http://www.w3.org/2000/svg"><path d="M4.495.035a5.314 5.314 0 00-1.811.573C1.334 1.321.327 2.708.059 4.23 0 4.55 0 4.99 0 15.067v10.17c0 .223.025.445.075.662.46 2.09 1.94 3.563 4.029 4.024.217.05.439.075.662.075h20.468c.223 0 .445-.026.662-.075 2.09-.461 3.568-1.94 4.029-4.024.05-.217.075-.439.075-.662v-10.17c0-10.082-.005-10.516-.059-10.837a5.058 5.058 0 00-.487-1.425C28.693 1.273 27.166.217 25.446.03c-.39-.043-20.571-.038-20.951.005zM15.97 5.371a8.914 8.914 0 012.978.884c.965.471 1.58.916 2.395 1.73.766.766 1.19 1.345 1.64 2.25.626 1.259.98 2.754 1.044 4.398.021.563.005.686-.123.847-.247.31-.783.257-.965-.091-.059-.118-.075-.215-.09-.665a11.512 11.512 0 00-.178-1.666c-.38-2.089-1.382-3.755-2.978-4.95-1.334-1.001-2.71-1.489-4.516-1.596-.61-.038-.718-.06-.852-.166-.257-.204-.268-.675-.021-.9.15-.14.257-.156.782-.14.262.006.664.038.884.065zm-7.34.343c.113.037.284.128.386.192.61.402 2.309 2.577 2.866 3.66.316.62.423 1.076.327 1.42-.102.363-.273.556-1.034 1.172-.305.247-.59.498-.638.568-.117.166-.208.493-.208.723.005.536.348 1.506.808 2.256.354.578.986 1.323 1.613 1.896.734.675 1.382 1.13 2.116 1.495.943.466 1.516.589 1.94.39.107-.047.219-.112.251-.138.032-.027.279-.333.552-.665.52-.653.637-.76.996-.884.456-.155.916-.112 1.383.124.353.182 1.125.659 1.623 1.007.653.46 2.057 1.602 2.244 1.826.332.413.391.938.166 1.517-.235.61-1.162 1.762-1.81 2.25-.584.444-.997.61-1.543.637-.45.021-.638-.016-1.21-.252-4.512-1.859-8.112-4.628-10.972-8.432-1.495-1.987-2.63-4.05-3.407-6.187-.456-1.249-.477-1.79-.102-2.427.16-.268.846-.938 1.344-1.307.83-.616 1.211-.841 1.517-.906.198-.053.557-.016.792.065zm7.565 1.982c1.95.284 3.46 1.189 4.446 2.657.557.825.9 1.8 1.023 2.84.043.38.043 1.076-.005 1.194a.725.725 0 01-.295.316c-.123.064-.39.059-.54-.021-.247-.124-.322-.322-.322-.863 0-.83-.214-1.704-.59-2.384a4.84 4.84 0 00-1.794-1.864c-.648-.386-1.602-.67-2.47-.74-.316-.026-.487-.09-.605-.23a.581.581 0 01-.048-.723c.171-.257.428-.3 1.2-.182zm.68 2.421c.632.134 1.12.375 1.532.76.536.505.825 1.115.954 1.988.085.574.053.793-.15.98-.188.172-.541.183-.75.017-.156-.118-.204-.236-.236-.568-.043-.44-.118-.745-.252-1.034-.284-.605-.782-.921-1.623-1.023-.396-.048-.514-.091-.643-.241a.598.598 0 01.182-.9c.123-.06.172-.07.445-.054.166.016.412.043.541.075z" fill="currentColor"/></symbol><symbol fill="none" viewBox="0 0 44 26" id="vk-icon" xmlns="http://www.w3.org/2000/svg"><path d="M42.34 1.76C42.642.746 42.34 0 40.908 0h-4.742c-1.207 0-1.758.644-2.061 1.352 0 0-2.411 5.94-5.828 9.791-1.103 1.12-1.607 1.475-2.208 1.475-.3 0-.737-.354-.737-1.37V1.761C25.332.54 24.983 0 23.978 0h-7.452c-.753 0-1.207.564-1.207 1.101 0 1.153 1.709 1.42 1.884 4.67v7.052c0 1.544-.275 1.826-.88 1.826-1.607 0-5.517-5.961-7.837-12.786C8.034.537 7.577.003 6.366.003h-4.74C.27.002 0 .646 0 1.353c0 1.272 1.607 7.563 7.484 15.884C11.403 22.92 16.92 26 21.945 26c3.012 0 3.384-.684 3.384-1.863v-4.295c0-1.368.288-1.643 1.242-1.643.7 0 1.907.358 4.72 3.096 3.214 3.246 3.746 4.703 5.552 4.703h4.74c1.354 0 2.03-.684 1.641-2.034-.426-1.343-1.961-3.299-3.998-5.612-1.107-1.32-2.762-2.74-3.266-3.45-.702-.915-.5-1.319 0-2.131.002.002 5.779-8.216 6.38-11.01z" fill="currentColor"/></symbol><symbol fill="none" viewBox="0 0 30 30" id="whatsapp-icon" xmlns="http://www.w3.org/2000/svg"><path d="M22.38 0c.18 0 .54 0 .81.03.66 0 1.53.06 1.92.15.6.12 1.17.3 1.62.54.57.27 1.05.63 1.5 1.08.42.42.78.9 1.05 1.47.24.45.42 1.02.54 1.62.09.39.15 1.26.18 1.92v15.57c0 .18 0 .54-.03.81 0 .66-.06 1.53-.15 1.92-.12.6-.3 1.17-.54 1.62-.27.57-.63 1.05-1.08 1.5-.42.42-.9.78-1.47 1.05-.45.24-1.02.42-1.62.54-.39.09-1.26.15-1.92.18H7.62c-.18 0-.54 0-.81-.03-.66 0-1.53-.06-1.92-.15-.6-.12-1.17-.3-1.62-.54-.57-.27-1.05-.63-1.5-1.08-.42-.42-.78-.9-1.05-1.47-.24-.45-.42-1.02-.54-1.62-.09-.39-.15-1.26-.18-1.92V7.62c0-.18 0-.54.03-.81 0-.66.06-1.53.15-1.92.12-.6.3-1.17.54-1.62.27-.57.63-1.05 1.08-1.5.42-.42.9-.78 1.47-1.05C3.72.48 4.29.3 4.89.18 5.28.09 6.15.03 6.81 0h15.57zm.51 7.181a10.626 10.626 0 00-7.565-3.135c-5.894 0-10.692 4.796-10.694 10.69 0 1.884.492 3.723 1.427 5.344l-1.517 5.54 5.67-1.486c1.561.851 3.32 1.3 5.11 1.3h.004c5.894 0 10.691-4.795 10.694-10.69a10.624 10.624 0 00-3.13-7.563zM15.325 23.63h-.004a8.877 8.877 0 01-4.524-1.238l-.324-.193-3.364.882.898-3.278-.212-.337a8.864 8.864 0 01-1.358-4.728c.002-4.9 3.989-8.885 8.891-8.885a8.83 8.83 0 016.284 2.606 8.83 8.83 0 012.601 6.286c-.002 4.9-3.989 8.885-8.888 8.885zm4.875-6.654c-.267-.134-1.58-.78-1.825-.87-.245-.089-.424-.133-.602.134-.178.268-.69.87-.846 1.048-.155.178-.311.2-.579.066-.267-.133-1.128-.415-2.148-1.325-.795-.709-1.33-1.583-1.487-1.85-.156-.268-.016-.413.117-.546.12-.12.268-.312.401-.468.134-.156.178-.267.267-.446.09-.178.045-.334-.022-.468-.067-.133-.601-1.448-.824-1.983-.217-.52-.437-.45-.6-.458a10.43 10.43 0 00-.513-.01.982.982 0 00-.713.334c-.245.268-.935.914-.935 2.229s.958 2.585 1.091 2.763c.134.178 1.885 2.876 4.565 4.033.637.276 1.135.44 1.523.563.64.203 1.223.175 1.683.106.513-.077 1.581-.646 1.804-1.27.222-.624.222-1.159.155-1.27-.066-.112-.244-.179-.512-.312z" fill="currentColor"/></symbol></svg>