<svg width="22" height="23" viewBox="0 0 22 23" fill="none" xmlns="http://www.w3.org/2000/svg">
<path d="M18.8215 16.9978H5.46199C5.09264 16.9824 4.74449 16.8211 4.4938 16.5494C4.24311 16.2778 4.11034 15.9178 4.12457 15.5484V15.5484C4.11358 15.2053 4.22786 14.87 4.44605 14.605C4.66425 14.3401 4.97144 14.1636 5.31024 14.1086L18.8905 12.427L21 3.2854H8.30868" stroke="white" stroke-width="2" stroke-linecap="round" stroke-linejoin="round"/>
<path d="M1 1H3.03812C3.23454 1.00521 3.42326 1.07747 3.57293 1.20477C3.7226 1.33207 3.8242 1.50675 3.86086 1.69979L6.55764 13.8083" stroke="white" stroke-width="2" stroke-linecap="round" stroke-linejoin="round"/>
<path d="M6.70911 21.1116C7.3402 21.1116 7.85181 20.6 7.85181 19.9689C7.85181 19.3378 7.3402 18.8262 6.70911 18.8262C6.07801 18.8262 5.56641 19.3378 5.56641 19.9689C5.56641 20.6 6.07801 21.1116 6.70911 21.1116Z" stroke="white" stroke-width="2" stroke-linejoin="round"/>
<path d="M16.7648 21.1116C17.3959 21.1116 17.9075 20.6 17.9075 19.9689C17.9075 19.3378 17.3959 18.8262 16.7648 18.8262C16.1337 18.8262 15.6221 19.3378 15.6221 19.9689C15.6221 20.6 16.1337 21.1116 16.7648 21.1116Z" stroke="white" stroke-width="2" stroke-linejoin="round"/>
</svg>
