<svg width="26" height="27" viewBox="0 0 26 27" fill="none" xmlns="http://www.w3.org/2000/svg">
<path d="M22.3856 20.1973H6.35419C5.91098 20.1787 5.49319 19.9853 5.19236 19.6592C4.89154 19.3332 4.73221 18.9013 4.74929 18.458V18.458C4.7361 18.0463 4.87323 17.6439 5.13507 17.326C5.3969 17.008 5.76553 16.7962 6.17209 16.7302L22.4685 14.7123L24.9998 3.74239H9.77022" stroke="#3A4097" stroke-width="2" stroke-linecap="round" stroke-linejoin="round"/>
<path d="M1 1H3.44574C3.68144 1.00625 3.90791 1.09296 4.08751 1.24573C4.26712 1.39849 4.38904 1.60811 4.43304 1.83975L7.66916 16.37" stroke="#3A4097" stroke-width="2" stroke-linecap="round" stroke-linejoin="round"/>
<path d="M7.85073 25.1337C8.60805 25.1337 9.22197 24.5198 9.22197 23.7625C9.22197 23.0051 8.60805 22.3912 7.85073 22.3912C7.09342 22.3912 6.47949 23.0051 6.47949 23.7625C6.47949 24.5198 7.09342 25.1337 7.85073 25.1337Z" stroke="#3A4097" stroke-width="2" stroke-linejoin="round"/>
<path d="M19.9176 25.1337C20.6749 25.1337 21.2889 24.5198 21.2889 23.7625C21.2889 23.0051 20.6749 22.3912 19.9176 22.3912C19.1603 22.3912 18.5464 23.0051 18.5464 23.7625C18.5464 24.5198 19.1603 25.1337 19.9176 25.1337Z" stroke="#3A4097" stroke-width="2" stroke-linejoin="round"/>
</svg>
