<svg width="20" height="24" viewBox="0 0 20 24" fill="none" xmlns="http://www.w3.org/2000/svg">
<path d="M7.16602 8.83301H7.83268V17.833H7.16602V8.83301Z" fill="#414146" stroke="#414146"/>
<path d="M12.166 8.83301H12.8327V17.833H12.166V8.83301Z" fill="#414146" stroke="#414146"/>
<path d="M2.16667 5.00016V4.50016H1.66667H0.5V3.8335H19.5V4.50016H18.3333H17.8333V5.00016V21.6668C17.8333 21.9762 17.7104 22.273 17.4916 22.4918C17.2728 22.7106 16.9761 22.8335 16.6667 22.8335H3.33333C3.02391 22.8335 2.72717 22.7106 2.50838 22.4918C2.28958 22.273 2.16667 21.9762 2.16667 21.6668V5.00016ZM2.83333 21.6668V22.1668H3.33333H16.6667H17.1667V21.6668V5.00016V4.50016H16.6667H3.33333H2.83333V5.00016V21.6668Z" fill="#414146" stroke="#414146"/>
<path d="M7.16602 0.5H12.8327V1.16667H7.16602V0.5Z" fill="#414146" stroke="#414146"/>
</svg>
