<svg width="24" height="24" viewBox="0 0 24 24" fill="none" xmlns="http://www.w3.org/2000/svg">
<path d="M21.9528 17.129C20.9988 16.1591 18.2871 14.3421 16.5099 14.3421C16.0982 14.3421 15.7388 14.4326 15.4448 14.6202C14.5758 15.1698 13.8832 15.5965 13.5499 15.5965C13.367 15.5965 13.1709 15.4349 12.7397 15.0663L12.6678 15.0017C11.4721 13.9736 11.2173 13.7085 10.7533 13.23L10.6357 13.1071C10.5508 13.0231 10.4789 12.9455 10.407 12.8743C10.0019 12.4605 9.70788 12.1631 8.66896 10.9992L8.62322 10.9475C8.12663 10.3914 7.79992 10.0293 7.78032 9.76418C7.76072 9.50554 7.98941 9.08524 8.57095 8.30285C9.27663 7.35881 9.30276 6.19493 8.65589 4.84353C8.1397 3.77663 7.2968 2.755 6.55191 1.85622L6.48657 1.77863C5.84623 1.00271 5.10134 0.614746 4.27151 0.614746C3.35021 0.614746 2.58572 1.10616 2.18061 1.36481C2.14794 1.3842 2.11526 1.41007 2.08259 1.42947C1.17436 1.99848 0.514412 2.78087 0.266117 3.57619C-0.106326 4.7724 -0.354621 6.32425 1.42919 9.5508C2.97123 12.3441 4.36953 14.2193 6.59112 16.4759C8.68203 18.5968 9.60987 19.2822 11.6877 20.7694C14.0008 22.4247 16.2224 23.3752 17.7775 23.3752C19.2215 23.3752 20.3584 23.3752 21.9789 21.4418C23.6778 19.4115 22.9721 18.17 21.9528 17.129Z" fill="#ACACAC" fill-opacity="0.4"/>
</svg>
