<svg width="20" height="20" viewBox="0 0 20 20" fill="none" xmlns="http://www.w3.org/2000/svg">
<path d="M18.1782 14.0585C17.4317 13.2916 15.3098 11.8548 13.9191 11.8548C13.5969 11.8548 13.3157 11.9264 13.0857 12.0747C12.4056 12.5093 11.8637 12.8467 11.6029 12.8467C11.4597 12.8467 11.3063 12.7189 10.9689 12.4275L10.9126 12.3763C9.97697 11.5634 9.77756 11.3538 9.41454 10.9754L9.32251 10.8782C9.25604 10.8118 9.1998 10.7504 9.14356 10.6942C8.82655 10.3669 8.59647 10.1318 7.78351 9.21142L7.74772 9.17052C7.35913 8.7308 7.10348 8.44447 7.08815 8.23484C7.07281 8.03032 7.25176 7.69798 7.70681 7.07931C8.25901 6.33282 8.27947 5.41249 7.77328 4.34388C7.36936 3.50024 6.70979 2.69239 6.12691 1.98169L6.07578 1.92033C5.57471 1.30678 4.99183 1 4.34248 1C3.62156 1 3.02334 1.38859 2.70634 1.5931C2.68077 1.60844 2.65521 1.62889 2.62964 1.64423C1.91894 2.09417 1.40253 2.71284 1.20824 3.34174C0.916799 4.28764 0.722507 5.51475 2.11835 8.06612C3.325 10.2749 4.41918 11.7577 6.15759 13.5421C7.79373 15.2192 8.51978 15.7611 10.1457 16.9371C11.9557 18.246 13.6941 18.9976 14.911 18.9976C16.0409 18.9976 16.9306 18.9976 18.1986 17.4689C19.528 15.8634 18.9758 14.8817 18.1782 14.0585Z" stroke="currentColor" stroke-width="1.4"/>
</svg>
