<svg width="20" height="21" viewBox="0 0 20 21" fill="none" xmlns="http://www.w3.org/2000/svg">
<path d="M8.13502 1.28283C9.49052 1.28159 10.8159 1.68241 11.9436 2.43459C13.0713 3.18676 13.9505 4.25649 14.4701 5.50846C14.9897 6.76042 15.1262 8.13836 14.8626 9.46797C14.5989 10.7976 13.9468 12.0191 12.9887 12.978C12.0307 13.9369 10.8097 14.5902 9.48038 14.8551C8.15101 15.12 6.77294 14.9846 5.52051 14.4662C4.26807 13.9478 3.19753 13.0695 2.44433 11.9425C1.69112 10.8156 1.28909 9.49052 1.28909 8.13502C1.29731 6.32132 2.02101 4.58415 3.30292 3.30107C4.58483 2.018 6.32133 1.2927 8.13502 1.28283ZM8.13502 0C6.52607 0 4.95324 0.47711 3.61545 1.371C2.27765 2.26488 1.23497 3.5354 0.619245 5.02188C0.00352489 6.50836 -0.157576 8.14404 0.156316 9.72208C0.470207 11.3001 1.24499 12.7496 2.38269 13.8873C3.5204 15.025 4.96992 15.7998 6.54796 16.1137C8.126 16.4276 9.76167 16.2665 11.2482 15.6508C12.7346 15.0351 14.0052 13.9924 14.899 12.6546C15.7929 11.3168 16.27 9.74397 16.27 8.13502C16.27 5.97748 15.413 3.9083 13.8873 2.38269C12.3617 0.85708 10.2926 0 8.13502 0Z" fill="#A4A4A4"/>
<path d="M19.8184 18.9546L15.2065 14.3114L14.3179 15.1937L18.9298 19.8369C18.9877 19.8953 19.0566 19.9416 19.1324 19.9734C19.2083 20.0051 19.2897 20.0216 19.3719 20.0219C19.4541 20.0222 19.5356 20.0063 19.6117 19.9751C19.6877 19.9439 19.7569 19.898 19.8153 19.8401C19.8736 19.7821 19.92 19.7133 19.9517 19.6374C19.9834 19.5616 19.9999 19.4802 20.0002 19.398C20.0005 19.3157 19.9846 19.2343 19.9534 19.1582C19.9222 19.0821 19.8763 19.0129 19.8184 18.9546Z" fill="#A4A4A4"/>
</svg>
