<svg width="20" height="18" viewBox="0 0 20 18" fill="none" xmlns="http://www.w3.org/2000/svg">
<path fill-rule="evenodd" clip-rule="evenodd" d="M14.3747 17.4997C14.5404 17.4997 14.6994 17.4339 14.8166 17.3167C14.9338 17.1995 14.9996 17.0405 14.9996 16.8748V2.1347L18.9318 6.06814C19.0491 6.18549 19.2083 6.25141 19.3743 6.25141C19.5402 6.25141 19.6994 6.18549 19.8167 6.06814C19.9341 5.95079 20 5.79163 20 5.62567C20 5.45972 19.9341 5.30056 19.8167 5.18321L14.8171 0.183603C14.7591 0.125403 14.6901 0.0792284 14.6142 0.0477228C14.5383 0.0162172 14.4569 0 14.3747 0C14.2925 0 14.2111 0.0162172 14.1351 0.0477228C14.0592 0.0792284 13.9902 0.125403 13.9322 0.183603L8.93258 5.18321C8.81524 5.30056 8.74931 5.45972 8.74931 5.62567C8.74931 5.79163 8.81524 5.95079 8.93258 6.06814C9.04993 6.18549 9.20909 6.25141 9.37505 6.25141C9.54101 6.25141 9.70017 6.18549 9.81752 6.06814L13.7497 2.1347V16.8748C13.7497 17.0405 13.8155 17.1995 13.9327 17.3167C14.0499 17.4339 14.2089 17.4997 14.3747 17.4997ZM5.62535 0.00111713C5.79109 0.00111713 5.95005 0.0669599 6.06725 0.184161C6.18445 0.301362 6.2503 0.460321 6.2503 0.626068V15.3662L10.1825 11.4327C10.2998 11.3154 10.459 11.2494 10.625 11.2494C10.7909 11.2494 10.9501 11.3154 11.0674 11.4327C11.1848 11.5501 11.2507 11.7092 11.2507 11.8752C11.2507 12.0411 11.1848 12.2003 11.0674 12.3176L6.06781 17.3173C6.00976 17.3755 5.94079 17.4216 5.86487 17.4531C5.78894 17.4846 5.70755 17.5009 5.62535 17.5009C5.54314 17.5009 5.46175 17.4846 5.38582 17.4531C5.3099 17.4216 5.24093 17.3755 5.18288 17.3173L0.183275 12.3176C0.065926 12.2003 -3.91007e-09 12.0411 0 11.8752C3.91007e-09 11.7092 0.065926 11.5501 0.183275 11.4327C0.300624 11.3154 0.459783 11.2494 0.62574 11.2494C0.791697 11.2494 0.950856 11.3154 1.06821 11.4327L5.0004 15.3662V0.626068C5.0004 0.460321 5.06624 0.301362 5.18344 0.184161C5.30064 0.0669599 5.4596 0.00111713 5.62535 0.00111713Z" fill="#414146"/>
</svg>
