<svg width="30" height="30" viewBox="0 0 30 30" fill="none" xmlns="http://www.w3.org/2000/svg">
<path d="M4.49464 0.0350685C3.91071 0.0993538 3.25714 0.308294 2.68393 0.608294C1.33393 1.32079 0.326786 2.70827 0.0589289 4.2297C3.25697e-07 4.55113 0 4.9904 0 15.0672V25.2373C0 25.4601 0.0251596 25.6822 0.0750005 25.8993C0.535715 27.9886 2.01429 29.4619 4.10357 29.9226C4.32073 29.9724 4.54283 29.9976 4.76563 29.9976H15H25.2344C25.4572 29.9976 25.6793 29.9724 25.8964 29.9226C27.9857 29.4619 29.4643 27.9833 29.925 25.8993C29.9748 25.6822 30 25.4601 30 25.2373V15.0672C30 4.98505 29.9946 4.55113 29.9411 4.2297C29.8607 3.76363 29.7 3.29222 29.4536 2.80472C28.6929 1.27258 27.1661 0.217232 25.4464 0.0297318C25.0554 -0.0131245 4.875 -0.0077877 4.49464 0.0350685ZM15.9696 5.37076C17.0732 5.51005 17.9679 5.77255 18.9482 6.25469C19.9125 6.72612 20.5286 7.1708 21.3429 7.98509C22.1089 8.75116 22.5321 9.32973 22.9821 10.2351C23.6089 11.494 23.9625 12.9886 24.0268 14.6333C24.0482 15.1958 24.0321 15.319 23.9036 15.4797C23.6571 15.7904 23.1214 15.7368 22.9393 15.3886C22.8804 15.2708 22.8643 15.1744 22.8482 14.7244C22.8161 14.0333 22.7679 13.5886 22.6714 13.0583C22.2911 10.969 21.2893 9.30294 19.6929 8.10829C18.3589 7.10651 16.9821 6.61902 15.1768 6.51188C14.5661 6.47437 14.4589 6.45292 14.325 6.34577C14.0679 6.1422 14.0571 5.67078 14.3036 5.44578C14.4536 5.3065 14.5607 5.29045 15.0857 5.30652C15.3482 5.31188 15.75 5.34398 15.9696 5.37076ZM8.63036 5.71364C8.74286 5.75114 8.91429 5.84219 9.01607 5.90648C9.62679 6.30826 11.325 8.4833 11.8821 9.56545C12.1982 10.1869 12.3054 10.6422 12.2089 10.9851C12.1071 11.3494 11.9357 11.5422 11.175 12.1583C10.8696 12.4047 10.5857 12.6565 10.5375 12.7262C10.4196 12.8922 10.3286 13.219 10.3286 13.4494C10.3339 13.9851 10.6768 14.9547 11.1375 15.7047C11.4911 16.2833 12.1232 17.0279 12.75 17.6012C13.4839 18.2762 14.1321 18.7315 14.8661 19.0958C15.8089 19.5618 16.3821 19.685 16.8054 19.4868C16.9125 19.4386 17.025 19.3744 17.0571 19.3476C17.0893 19.3208 17.3357 19.0154 17.6089 18.6833C18.1286 18.0297 18.2464 17.9225 18.6054 17.7993C19.0607 17.644 19.5214 17.6869 19.9875 17.9226C20.3411 18.1047 21.1125 18.5815 21.6107 18.9297C22.2643 19.3904 23.6679 20.5315 23.8554 20.7565C24.1875 21.169 24.2464 21.694 24.0214 22.2725C23.7857 22.8833 22.8589 24.035 22.2107 24.5225C21.6268 24.9672 21.2143 25.1333 20.6679 25.1601C20.2179 25.1815 20.0304 25.144 19.4571 24.9083C14.9464 23.0493 11.3464 20.2797 8.48571 16.4762C6.99107 14.4887 5.85536 12.4262 5.07857 10.2887C4.62321 9.04045 4.60179 8.49933 4.97679 7.86183C5.1375 7.59398 5.82322 6.92436 6.32143 6.55472C7.15179 5.93865 7.53214 5.71363 7.8375 5.64934C8.03571 5.59577 8.39464 5.63328 8.63036 5.71364ZM16.1946 7.69578C18.1446 7.97971 19.6554 8.88505 20.6411 10.3529C21.1982 11.1779 21.5411 12.1529 21.6643 13.1922C21.7071 13.5725 21.7071 14.269 21.6589 14.3869C21.6161 14.494 21.4821 14.644 21.3643 14.7029C21.2411 14.7672 20.9732 14.7619 20.8232 14.6815C20.5768 14.5583 20.5018 14.3601 20.5018 13.819C20.5018 12.9886 20.2875 12.1154 19.9125 11.4351C19.4893 10.6583 18.8732 10.0154 18.1179 9.57078C17.4696 9.18507 16.5161 8.90115 15.6482 8.83151C15.3321 8.80472 15.1607 8.74045 15.0429 8.60116C14.8607 8.39223 14.8393 8.1083 14.9946 7.87795C15.1661 7.6208 15.4232 7.57793 16.1946 7.69578ZM16.875 10.1172C17.5071 10.2512 17.9946 10.4922 18.4071 10.8779C18.9429 11.3815 19.2321 11.9922 19.3607 12.8654C19.4464 13.4386 19.4143 13.6583 19.2107 13.8458C19.0232 14.0172 18.6696 14.0279 18.4607 13.8618C18.3054 13.744 18.2571 13.6261 18.225 13.294C18.1821 12.8547 18.1071 12.5494 17.9732 12.2601C17.6893 11.6547 17.1911 11.3386 16.35 11.2368C15.9536 11.1886 15.8357 11.1458 15.7071 10.9958C15.4714 10.7172 15.5625 10.2672 15.8893 10.0958C16.0125 10.0368 16.0607 10.0261 16.3339 10.0422C16.5 10.0583 16.7464 10.0851 16.875 10.1172Z" fill="currentColor"/>
</svg>
