<svg width="44" height="26" viewBox="0 0 44 26" fill="none" xmlns="http://www.w3.org/2000/svg">
<path d="M42.3398 1.76071C42.6425 0.744917 42.3398 0 40.9082 0H36.1658C34.9591 0 34.4077 0.64443 34.1049 1.35221C34.1049 1.35221 31.6937 7.29188 28.277 11.1432C27.1741 12.2638 26.6702 12.6177 26.0691 12.6177C25.7685 12.6177 25.3316 12.2638 25.3316 11.248V1.76071C25.3316 0.541758 24.9835 0 23.9779 0H16.5259C15.7733 0 15.3192 0.563603 15.3192 1.10099C15.3192 2.25441 17.0276 2.52092 17.2028 5.77147V12.8231C17.2028 14.3675 16.9281 14.6493 16.3226 14.6493C14.7159 14.6493 10.8061 8.68778 8.48569 1.86338C8.03372 0.537389 7.57743 0.00218539 6.36643 0.00218539H1.62621C0.270314 0.00218539 0 0.646615 0 1.35439C0 2.62578 1.60674 8.91716 7.48445 17.2379C11.4029 22.9198 16.9195 26 21.9451 26C24.9575 26 25.3295 25.3162 25.3295 24.1366V19.8419C25.3295 18.4744 25.6171 18.1991 26.5708 18.1991C27.2714 18.1991 28.4781 18.5574 31.2915 21.2946C34.505 24.5407 35.037 25.9978 36.8427 25.9978H41.5829C42.9366 25.9978 43.6135 25.3141 43.2242 23.964C42.7982 22.6206 41.2628 20.6654 39.2258 18.352C38.1186 17.0326 36.4642 15.6127 35.9604 14.9027C35.2576 13.9874 35.4608 13.5833 35.9604 12.7706C35.9625 12.7728 41.7386 4.5547 42.3398 1.76071Z" fill="currentColor"/>
</svg>
