<svg width="30" height="30" viewBox="0 0 30 30" fill="none" xmlns="http://www.w3.org/2000/svg">
<path d="M22.38 0C22.5601 0 22.92 -3.49246e-09 23.19 0.03C23.85 0.03 24.72 0.09 25.11 0.18C25.71 0.3 26.28 0.48 26.73 0.72C27.3 0.99 27.78 1.35 28.23 1.8C28.65 2.22 29.01 2.7 29.28 3.27C29.52 3.72 29.7 4.29 29.82 4.89C29.91 5.28 29.97 6.15 30 6.81V22.3801C30 22.5601 30 22.9201 29.97 23.1901C29.97 23.8501 29.91 24.7201 29.82 25.1101C29.7 25.7101 29.52 26.2801 29.28 26.7301C29.01 27.3001 28.65 27.7801 28.2 28.2301C27.78 28.6501 27.3 29.0101 26.73 29.2801C26.28 29.5201 25.71 29.7001 25.11 29.8201C24.72 29.9101 23.85 29.9701 23.19 30.0001H7.62C7.44 30.0001 7.08 30.0001 6.81 29.9701C6.15 29.9701 5.28 29.9101 4.89 29.8201C4.29 29.7001 3.72 29.5201 3.27 29.2801C2.7 29.0101 2.22 28.6501 1.77 28.2001C1.35 27.7801 0.99 27.3001 0.72 26.7301C0.48 26.2801 0.3 25.7101 0.18 25.1101C0.09 24.7201 0.03 23.8501 0 23.1901V7.62C0 7.44 0 7.08 0.03 6.81C0.03 6.15 0.09 5.28 0.18 4.89C0.3 4.29 0.48 3.72 0.72 3.27C0.99 2.7 1.35 2.22 1.8 1.77C2.22 1.35 2.7 0.99 3.27 0.72C3.72 0.48 4.29 0.3 4.89 0.18C5.28 0.09 6.14994 0.03 6.81 0H22.38ZM22.8895 7.18143C20.8706 5.16076 18.1856 4.04742 15.3249 4.04625C9.43066 4.04625 4.63342 8.84162 4.63107 14.7359C4.63031 16.6201 5.12268 18.4593 6.05848 20.0804L4.54137 25.6201L10.2103 24.1336C11.7722 24.9853 13.5308 25.434 15.3206 25.4348H15.325C21.2187 25.4348 26.0163 20.6388 26.0187 14.7445C26.0198 11.888 24.9086 9.20209 22.8895 7.18143ZM15.325 23.6292H15.3214C13.7265 23.6286 12.1622 23.2003 10.7975 22.3907L10.473 22.1981L7.10895 23.0803L8.00689 19.8015L7.79549 19.4654C6.9058 18.0506 6.43594 16.4155 6.43658 14.7366C6.43852 9.83754 10.4258 5.85176 15.3285 5.85176C17.7026 5.8527 19.9342 6.77818 21.6123 8.45766C23.2904 10.1371 24.2141 12.3696 24.2132 14.7438C24.2112 19.6432 20.224 23.6292 15.325 23.6292ZM20.2004 16.9746C19.9332 16.8408 18.6195 16.1946 18.3745 16.1055C18.1296 16.0164 17.9515 15.9718 17.7734 16.2392C17.5952 16.5066 17.0832 17.1083 16.9273 17.2866C16.7715 17.4648 16.6156 17.4871 16.3484 17.3534C16.0812 17.2197 15.2203 16.9376 14.1997 16.0276C13.4054 15.3193 12.8691 14.4445 12.7132 14.1771C12.5573 13.9097 12.6966 13.7651 12.8304 13.632C12.9506 13.5124 13.0976 13.32 13.2312 13.164C13.3648 13.008 13.4093 12.8966 13.4984 12.7184C13.5874 12.5401 13.5429 12.3841 13.4761 12.2504C13.4093 12.1167 12.8749 10.8019 12.6523 10.2671C12.4354 9.74625 12.2151 9.81674 12.0511 9.80854C11.8954 9.8008 11.7171 9.79916 11.539 9.79916C11.3608 9.79916 11.0714 9.86602 10.8264 10.1334C10.5815 10.4008 9.89127 11.0471 9.89127 12.3618C9.89127 13.6765 10.8487 14.9467 10.9823 15.125C11.1159 15.3033 12.8665 18.0014 15.5469 19.1584C16.1844 19.4336 16.6821 19.5979 17.0701 19.7211C17.7102 19.9243 18.2927 19.8957 18.7531 19.8269C19.2664 19.7502 20.334 19.1807 20.5567 18.5568C20.7793 17.9328 20.7793 17.398 20.7125 17.2866C20.6457 17.1751 20.4676 17.1083 20.2004 16.9746Z" fill="currentColor"/>
</svg>
