<svg width="63" height="63" viewBox="0 0 63 63" fill="none" xmlns="http://www.w3.org/2000/svg">
<path fill-rule="evenodd" clip-rule="evenodd" d="M29.4076 31.5467C31.3816 32.372 33.7389 31.9775 35.343 30.3676C37.4685 28.2342 37.4685 24.7734 35.343 22.6401C33.2199 20.5094 29.7801 20.5094 27.657 22.6401C26.5561 23.7451 26.0248 25.2044 26.0649 26.6566C26.085 27.3811 25.5138 27.9849 24.7892 28.0048C24.0646 28.025 23.461 27.4538 23.4409 26.7291C23.3818 24.589 24.1667 22.424 25.7975 20.7873C28.9464 17.627 34.0536 17.627 37.2025 20.7873C40.3486 23.945 40.3486 29.0627 37.2025 32.2203C34.8209 34.6104 31.3204 35.1918 28.3951 33.9685C27.7263 33.689 27.4108 32.9201 27.6906 32.2515C27.9702 31.5827 28.739 31.2672 29.4076 31.5467ZM20.6148 13.7192C21.1283 14.2309 21.1298 15.0619 20.6182 15.5754C14.6049 21.6104 14.6049 31.3971 20.6182 37.4322C21.1298 37.9457 21.1283 38.7768 20.6148 39.2884C20.1013 39.8 19.2703 39.7987 18.7586 39.285C11.7248 32.2255 11.7248 20.782 18.7586 13.7226C19.2703 13.2091 20.1013 13.2076 20.6148 13.7192ZM42.3859 13.7192C42.8993 13.2076 43.7304 13.2091 44.242 13.7226C51.2757 20.782 51.2757 32.2255 44.242 39.285C43.7304 39.7987 42.8993 39.8 42.3859 39.2884C41.8724 38.7768 41.8708 37.9457 42.3825 37.4322C48.3955 31.3971 48.3955 21.6104 42.3825 15.5754C41.8708 15.0619 41.8724 14.2309 42.3859 13.7192Z" fill="#3743F9"/>
<path fill-rule="evenodd" clip-rule="evenodd" d="M13.8648 6.94525C14.3783 7.45686 14.3798 8.28791 13.8682 8.80139C4.12726 18.5778 4.12726 34.4303 13.8682 44.2066C14.3798 44.7203 14.3783 45.5511 13.8648 46.0627C13.3514 46.5746 12.5203 46.573 12.0087 46.0596C1.2471 35.2587 1.2471 17.7493 12.0087 6.94861C12.5203 6.43511 13.3514 6.43361 13.8648 6.94525ZM49.1353 6.94525C49.6487 6.43361 50.4798 6.43511 50.9914 6.94861C61.7529 17.7493 61.7529 35.2587 50.9914 46.0596C50.4798 46.573 49.6487 46.5746 49.1353 46.0627C48.6216 45.5511 48.6203 44.7203 49.1319 44.2066C58.8727 34.4303 58.8727 18.5778 49.1319 8.80139C48.6203 8.28791 48.6216 7.45686 49.1353 6.94525ZM31.5 31.9659C32.2248 31.9659 32.8125 32.5534 32.8125 33.2784V56.4378C32.8125 57.1625 32.2248 57.7503 31.5 57.7503C30.7752 57.7503 30.1875 57.1625 30.1875 56.4378V33.2784C30.1875 32.5534 30.7752 31.9659 31.5 31.9659Z" fill="#3743F9"/>
</svg>
