<svg width="62" height="62" viewBox="0 0 62 62" fill="none" xmlns="http://www.w3.org/2000/svg">
<path d="M19.8951 44.6455C19.8951 44.9267 19.6693 45.1598 19.3888 45.1667C18.9989 45.1736 18.5337 45.1804 18.0412 45.1941C17.2613 45.2147 16.3788 45.2421 15.4621 45.2421C12.8078 45.2421 9.87987 45.0433 8.36118 43.9872C5.07751 41.7037 5.05015 37.1984 5.02278 33.2211C5.02278 32.7685 5.01594 32.3365 5.0091 31.9113C4.93385 27.5843 5.28958 21.9543 7.4308 19.712C8.9495 18.1279 12.0006 18.1142 14.0187 18.1005C14.1965 18.1005 14.3675 18.1005 14.5317 18.0936C15.4621 18.0799 16.3241 18.073 17.1655 18.0593C19.081 18.0319 20.8938 18.0113 23.1103 17.9907C23.1103 17.9907 23.1103 17.9907 23.1172 17.9907C23.3976 17.9907 23.6302 18.217 23.6302 18.4982C23.6302 18.7794 23.4045 19.0125 23.124 19.0194C20.9075 19.0399 19.0947 19.0605 17.1792 19.0879C16.3378 19.1017 15.4758 19.1085 14.5454 19.1222C14.3812 19.1222 14.2102 19.1222 14.0255 19.1291C12.1784 19.1359 9.38732 19.1565 8.17647 20.4251C6.69198 21.9749 5.93947 26.0482 6.04209 31.8907C6.04893 32.3228 6.05577 32.7548 6.05577 33.2142C6.08313 36.9378 6.1105 41.162 8.95634 43.1438C10.7213 44.3712 15.2911 44.2478 18.0206 44.1724C18.52 44.1587 18.9852 44.1449 19.382 44.1449H19.3888C19.6625 44.1381 19.8951 44.3644 19.8951 44.6455ZM57.9993 34.7434C58.0061 34.8806 57.9651 35.0177 57.8693 35.1206C57.7735 35.2234 57.6435 35.2852 57.5067 35.292C56.6653 35.3263 55.8444 35.3537 55.0166 35.388C54.3736 35.4155 53.7373 35.436 53.0875 35.4635C53.1011 35.9846 53.1217 36.5058 53.1422 37.0407C53.2448 39.5916 52.718 41.5048 51.5277 42.9037C49.9338 44.7758 47.4437 44.9541 45.0219 44.9816C40.8216 45.0158 37.2506 45.0433 33.4744 45.057C33.1939 45.057 32.9613 44.8307 32.9613 44.5427C32.9613 44.2615 33.1871 44.0284 33.4744 44.0284C37.2506 44.0147 40.8216 43.9941 45.0151 43.9529C47.1974 43.9324 49.4344 43.7815 50.7478 42.2386C51.7603 41.0454 52.2118 39.3653 52.116 37.0818C52.0887 36.3755 52.0682 35.6897 52.0476 34.9971C52.0476 34.9903 52.0476 34.9903 52.0476 34.9834C52.0476 34.9766 52.0476 34.9697 52.0476 34.9629C52.0134 33.5982 51.9929 32.2268 51.9724 30.725C51.945 28.9558 51.9176 26.9603 51.8561 24.6356C51.815 23.2161 51.774 21.6046 51.001 20.5143C49.7627 18.7725 46.8211 18.7931 45.8497 18.7999C45.0904 18.8068 44.461 18.8136 43.7358 18.8205C42.4429 18.8342 40.8421 18.8548 37.6337 18.8822C37.6337 18.8822 37.6337 18.8822 37.6269 18.8822C37.3464 18.8822 37.1138 18.6559 37.1138 18.3748C37.1138 18.0936 37.3395 17.8605 37.62 17.8536C40.8284 17.833 42.4292 17.8125 43.7153 17.7919C44.4473 17.785 45.0698 17.7782 45.836 17.7713C45.8907 17.7713 45.9386 17.7713 45.9934 17.7713C48.9008 17.7713 50.8094 18.4708 51.8356 19.9177C52.7933 21.2686 52.8412 23.0447 52.8822 24.6082C52.8891 24.8825 52.8959 25.1499 52.9027 25.4173C53.4979 25.3968 54.1068 25.383 54.7224 25.3625C55.5228 25.335 56.3164 25.3145 57.0826 25.287C57.3562 25.2802 57.5888 25.4928 57.6093 25.7671C57.712 27.2688 57.7598 28.798 57.8077 30.2724C57.8488 31.7467 57.8967 33.2554 57.9993 34.7434ZM56.9389 34.284C56.8568 32.9536 56.8158 31.6096 56.7747 30.3135C56.7337 29.0106 56.6926 27.6666 56.6106 26.3431C56.0017 26.3637 55.3723 26.3842 54.7498 26.3979C54.1341 26.4185 53.5184 26.4391 52.9233 26.4528C52.9575 28.0232 52.978 29.4358 52.9917 30.7181C53.0122 32.0279 53.0259 33.2416 53.0532 34.4348C53.6963 34.4074 54.3325 34.3868 54.9687 34.3594C55.6255 34.3388 56.2753 34.3114 56.9389 34.284ZM41.7178 29.6141C35.3146 37.2601 31.2374 42.026 25.3815 48.4583C25.06 48.8148 24.6358 49 24.198 49C23.9039 49 23.6029 48.9177 23.3292 48.7394C22.6451 48.3143 22.3852 47.5188 22.6862 46.7645C23.4455 44.8444 24.1501 42.9792 24.8342 41.1825C25.8193 38.5767 26.7634 36.0943 27.6459 34.044C26.2777 34.1057 24.8342 34.0851 23.4318 34.0714C22.522 34.0645 21.5779 34.0508 20.6681 34.0645C20.6612 34.0645 20.6544 34.0645 20.6476 34.0645C20.0456 34.0645 19.4914 33.7354 19.211 33.1936C18.9305 32.6519 18.9715 32.0005 19.3273 31.4999C22.4878 27.0494 28.2616 18.4502 31.4221 13.7254C31.8599 13.0671 32.6466 12.8271 33.3786 13.1288C34.1106 13.4306 34.5005 14.1506 34.3569 14.9255C32.8108 23.2298 32.3661 26.0276 32.2499 26.9534C34.6168 27.07 36.0329 27.0357 37.9552 26.9945C38.6804 26.9808 39.5013 26.9603 40.459 26.9465C40.4659 26.9465 40.4727 26.9465 40.4795 26.9465C41.1089 26.9465 41.6699 27.3031 41.9367 27.8723C42.2171 28.4552 42.1282 29.1203 41.7178 29.6141ZM41.0131 28.318C40.9105 28.1054 40.7053 27.9752 40.4727 27.982C39.515 27.9957 38.7009 28.0163 37.9757 28.03C35.9029 28.078 34.4048 28.1123 31.6889 27.9614C31.5384 27.9546 31.4016 27.8791 31.3058 27.7626C31.1211 27.5294 31.0732 27.4608 31.8599 22.9487C32.2225 20.864 32.7219 18.1073 33.3512 14.7472C33.4197 14.3975 33.2076 14.178 32.9955 14.0889C32.7766 13.9997 32.4824 14.0134 32.2841 14.3083C29.1235 19.0399 23.3429 27.646 20.1687 32.1033C20.0387 32.2885 20.0182 32.5216 20.1276 32.7205C20.2303 32.9194 20.4355 33.0359 20.6612 33.0359C21.5779 33.0222 22.5288 33.0359 23.4455 33.0428C25.1216 33.0634 26.8592 33.0839 28.4189 32.9674C28.4326 32.9674 28.4463 32.9674 28.4531 32.9674C28.6173 32.9674 28.7746 33.0496 28.8704 33.1868C28.973 33.3377 28.9935 33.5297 28.9183 33.6942C27.9537 35.8543 26.9002 38.6179 25.792 41.546C25.1079 43.3495 24.4033 45.2147 23.6371 47.1416C23.5002 47.4777 23.6713 47.7382 23.8765 47.8617C24.0817 47.9851 24.3827 48.0262 24.629 47.7588C30.4712 41.3403 34.5416 36.5812 40.931 28.9489C41.0884 28.7706 41.1157 28.5306 41.0131 28.318Z" fill="#3743F9"/>
</svg>
