<svg width="62" height="62" viewBox="0 0 62 62" fill="none" xmlns="http://www.w3.org/2000/svg">
<path d="M14 9.45618V8.85618C13.6686 8.85618 13.4 9.12481 13.4 9.45618H14ZM47.797 9.45618H48.397C48.397 9.12481 48.1283 8.85618 47.797 8.85618V9.45618ZM47.797 55.3204V55.9204C48.1283 55.9204 48.397 55.6518 48.397 55.3204H47.797ZM14 55.3204H13.4C13.4 55.6518 13.6686 55.9204 14 55.9204V55.3204ZM25.3984 21.578C25.7298 21.578 25.9984 21.3093 25.9984 20.978C25.9984 20.6466 25.7298 20.378 25.3984 20.378V21.578ZM22.544 19.8959C22.2225 19.8155 21.8967 20.011 21.8164 20.3324C21.736 20.6539 21.9314 20.9797 22.2529 21.0601L22.544 19.8959ZM24.708 5.00814C24.3766 5.00814 24.108 5.27677 24.108 5.60814C24.108 5.93951 24.3766 6.20814 24.708 6.20814V5.00814ZM31.9989 6.20814C32.3303 6.20814 32.5989 5.93951 32.5989 5.60814C32.5989 5.27677 32.3303 5.00814 31.9989 5.00814V6.20814ZM34.8983 28.478L34.3412 28.7008C34.3839 28.8074 34.4562 28.8995 34.5496 28.9662L34.8983 28.478ZM36.3983 33.978L35.8991 33.6451C35.8208 33.7626 35.7864 33.9039 35.802 34.0442L36.3983 33.978ZM29.3983 39.478L29.7311 38.9787C29.5075 38.8296 29.2119 38.8475 29.0078 39.0224L29.3983 39.478ZM25.3983 35.978H25.9983C25.9983 35.7982 25.9177 35.6279 25.7787 35.514C25.6397 35.4 25.4569 35.3544 25.2806 35.3896L25.3983 35.978ZM22.3983 32.478L21.9741 32.0537L21.9741 32.0537L22.3983 32.478ZM25.3983 28.478V29.078C25.5168 29.078 25.6326 29.0429 25.7311 28.9772L25.3983 28.478ZM29.3983 25.978L29.7311 25.4787C29.6659 25.4353 29.5928 25.405 29.516 25.3896L29.3983 25.978ZM30.8984 26.978L30.5656 27.4772C30.7197 27.5799 30.9125 27.6057 31.0882 27.5472L30.8984 26.978ZM33.8984 25.978L34.4555 25.7552C34.3376 25.4602 34.0101 25.3083 33.7087 25.4088L33.8984 25.978ZM45.3984 31.578C45.7298 31.578 45.9984 31.3093 45.9984 30.978C45.9984 30.6466 45.7298 30.378 45.3984 30.378L45.3984 31.578ZM42.5143 43.9389C42.7689 44.151 43.1472 44.1166 43.3594 43.8621C43.5715 43.6075 43.5371 43.2292 43.2825 43.017L42.5143 43.9389ZM23.4512 15.2447C23.3224 14.9394 22.9704 14.7963 22.6651 14.9252C22.3598 15.054 22.2168 15.406 22.3457 15.7113L23.4512 15.2447ZM16.2008 24.4597C15.9145 24.2927 15.5471 24.3894 15.3802 24.6756C15.2132 24.9619 15.3099 25.3293 15.5961 25.4962L16.2008 24.4597ZM21.8984 33.578C22.2298 33.578 22.4984 33.3093 22.4984 32.978C22.4984 32.6466 22.2298 32.378 21.8984 32.378V33.578ZM18.3984 32.378C18.0671 32.378 17.7984 32.6466 17.7984 32.978C17.7984 33.3093 18.0671 33.578 18.3984 33.578V32.378ZM16.4565 43.0721C16.2324 43.3162 16.2485 43.6957 16.4926 43.9199C16.7367 44.144 17.1162 44.1279 17.3404 43.8838L16.4565 43.0721ZM33.3618 26.2096C33.2136 26.506 33.3337 26.8664 33.6301 27.0146C33.9265 27.1628 34.2869 27.0427 34.4351 26.7463L33.3618 26.2096ZM36.8984 20.478L36.6301 19.9413L36.4512 20.0308L36.3618 20.2096L36.8984 20.478ZM41.1668 19.0146C41.4632 18.8664 41.5833 18.506 41.4351 18.2096C41.2869 17.9133 40.9265 17.7931 40.6301 17.9413L41.1668 19.0146ZM38.2733 26.9465C38.532 26.7395 38.574 26.3619 38.367 26.1031C38.16 25.8444 37.7824 25.8024 37.5236 26.0094L38.2733 26.9465ZM30.3294 26.6677C30.4342 26.9821 30.774 27.152 31.0883 27.0472C31.4027 26.9424 31.5726 26.6026 31.4678 26.2882L30.3294 26.6677ZM31.4353 24.2463C31.5834 23.9499 31.4633 23.5895 31.1669 23.4413C30.8705 23.2931 30.5101 23.4133 30.3619 23.7096L31.4353 24.2463ZM39.5384 36.458C39.8035 36.6568 40.1796 36.6031 40.3784 36.338C40.5773 36.0729 40.5235 35.6968 40.2584 35.498L39.5384 36.458ZM36.0384 51.958C36.3035 52.1568 36.6796 52.1031 36.8784 51.838C37.0773 51.5729 37.0235 51.1968 36.7584 50.998L36.0384 51.958ZM21.3555 50.2225C21.2145 50.5223 21.3431 50.8798 21.643 51.0209C21.9428 51.162 22.3002 51.0333 22.4413 50.7334L21.3555 50.2225ZM29.9984 39.978C29.9984 39.6466 29.7298 39.378 29.3984 39.378C29.0671 39.378 28.7984 39.6466 28.7984 39.978H29.9984ZM28.7984 43.978C28.7984 44.3093 29.0671 44.578 29.3984 44.578C29.7298 44.578 29.9984 44.3093 29.9984 43.978H28.7984ZM43.6534 60.356H18.1436V61.556H43.6534V60.356ZM18.1436 60.356C16.1865 60.356 14.6 58.7694 14.6 56.8124H13.4C13.4 59.4322 15.5238 61.556 18.1436 61.556V60.356ZM14.6 56.8124V6.14358H13.4V56.8124H14.6ZM14.6 6.14358C14.6 4.18652 16.1865 2.6 18.1436 2.6V1.4C15.5238 1.4 13.4 3.52378 13.4 6.14358H14.6ZM18.1436 2.6H43.6534V1.4H18.1436V2.6ZM43.6534 2.6C45.6104 2.6 47.197 4.18652 47.197 6.14358H48.397C48.397 3.52378 46.2732 1.4 43.6534 1.4V2.6ZM47.197 6.14358V56.8124H48.397V6.14358H47.197ZM47.197 56.8124C47.197 58.7694 45.6104 60.356 43.6534 60.356V61.556C46.2732 61.556 48.397 59.4322 48.397 56.8124H47.197ZM14 10.0562H47.797V8.85618H14V10.0562ZM47.197 9.45618V55.3204H48.397V9.45618H47.197ZM47.797 54.7204H14V55.9204H47.797V54.7204ZM14.6 55.3204V9.45618H13.4V55.3204H14.6ZM25.3984 20.378C25.0577 20.378 24.5212 20.3041 23.9569 20.2004C23.4042 20.0987 22.8666 19.9765 22.544 19.8959L22.2529 21.0601C22.5969 21.1461 23.1594 21.2739 23.74 21.3806C24.309 21.4852 24.9392 21.578 25.3984 21.578V20.378ZM32.3126 59.364C33.0792 58.6771 33.1439 57.4987 32.457 56.732L31.5633 57.5328C31.8079 57.8058 31.7849 58.2255 31.5118 58.4702L32.3126 59.364ZM32.457 56.732C31.7702 55.9654 30.5918 55.9007 29.8251 56.5876L30.6259 57.4813C30.8989 57.2367 31.3186 57.2597 31.5633 57.5328L32.457 56.732ZM29.8251 56.5876C29.0584 57.2744 28.9938 58.4528 29.6806 59.2195L30.5744 58.4187C30.3298 58.1457 30.3528 57.726 30.6259 57.4813L29.8251 56.5876ZM29.6806 59.2195C30.3675 59.9861 31.5459 60.0508 32.3126 59.364L31.5118 58.4702C31.2387 58.7148 30.8191 58.6918 30.5744 58.4187L29.6806 59.2195ZM36.7146 6.85186C37.3799 6.85186 38.03 6.35308 38.03 5.60814H36.83C36.83 5.59834 36.8357 5.60238 36.8191 5.61729C36.8016 5.63311 36.7662 5.65186 36.7146 5.65186V6.85186ZM38.03 5.60814C38.03 4.8632 37.3799 4.36442 36.7146 4.36442V5.56442C36.7662 5.56442 36.8016 5.58317 36.8191 5.59899C36.8357 5.6139 36.83 5.61794 36.83 5.60814H38.03ZM36.7146 4.36442C36.0492 4.36442 35.3991 4.8632 35.3991 5.60814H36.5991C36.5991 5.61794 36.5934 5.6139 36.61 5.59899C36.6276 5.58317 36.6629 5.56442 36.7146 5.56442V4.36442ZM35.3991 5.60814C35.3991 6.35308 36.0492 6.85186 36.7146 6.85186V5.65186C36.6629 5.65186 36.6276 5.63311 36.61 5.61729C36.5934 5.60238 36.5991 5.59834 36.5991 5.60814H35.3991ZM24.708 6.20814H31.9989V5.00814H24.708V6.20814ZM34.5496 28.9662L38.0496 31.4662L38.7471 30.4897L35.2471 27.9897L34.5496 28.9662ZM37.8991 30.6451L35.8991 33.6451L36.8975 34.3108L38.8975 31.3108L37.8991 30.6451ZM35.802 34.0442L36.302 38.5442L37.4946 38.4117L36.9946 33.9117L35.802 34.0442ZM36.5655 37.9787L32.0656 40.9787L32.7313 41.9772L37.2311 38.9772L36.5655 37.9787ZM32.7312 40.9787L29.7311 38.9787L29.0655 39.9772L32.0656 41.9772L32.7312 40.9787ZM29.0078 39.0224C28.4291 39.5185 27.5646 40.2345 26.8495 40.7739C26.4877 41.0469 26.1838 41.2595 25.98 41.3777C25.8652 41.4444 25.8356 41.4489 25.8628 41.4425C25.8752 41.4396 25.9071 41.4328 25.9523 41.4325C25.9961 41.4321 26.0774 41.4375 26.1709 41.4796C26.274 41.526 26.3691 41.6073 26.431 41.72C26.4882 41.8243 26.4983 41.9207 26.4983 41.978H25.2983C25.2983 42.0602 25.313 42.1772 25.3791 42.2976C25.4499 42.4265 25.5582 42.5198 25.6788 42.574C25.8838 42.6662 26.0745 42.6255 26.1389 42.6103C26.2983 42.5726 26.4601 42.4866 26.5822 42.4157C26.8525 42.2589 27.2048 42.0091 27.5721 41.732C28.3153 41.1714 29.2009 40.4375 29.7888 39.9335L29.0078 39.0224ZM26.4983 41.978C26.4983 41.7916 26.4563 41.5209 26.4111 41.2643C26.3628 40.9906 26.2988 40.6709 26.2367 40.3603C26.1738 40.0459 26.1128 39.7406 26.0673 39.4831C26.0188 39.2084 25.9983 39.0416 25.9983 38.978H24.7983C24.7983 39.1644 24.8403 39.4351 24.8856 39.6916C24.9339 39.9653 24.9979 40.2851 25.06 40.5956C25.1229 40.9101 25.1839 41.2153 25.2293 41.4729C25.2778 41.7476 25.2983 41.9144 25.2983 41.978H26.4983ZM25.9983 38.978V35.978H24.7983V38.978H25.9983ZM25.2806 35.3896L22.7808 35.8896L23.0161 37.0663L25.516 36.5663L25.2806 35.3896ZM23.4676 36.2882C23.3125 35.8229 23.0946 34.9548 22.9657 34.1572C22.9011 33.7578 22.8626 33.3984 22.8608 33.1271C22.8599 32.9903 22.8686 32.8967 22.8798 32.8407C22.8945 32.7666 22.8996 32.8252 22.8226 32.9022L21.9741 32.0537C21.7971 32.2307 21.7324 32.458 21.7028 32.6067C21.6697 32.7733 21.6597 32.9562 21.6609 33.1351C21.6632 33.495 21.7123 33.9231 21.7811 34.3487C21.9189 35.2012 22.151 36.133 22.3292 36.6677L23.4676 36.2882ZM22.8226 32.9022C22.9954 32.7294 23.0619 32.5104 23.0929 32.3606C23.1269 32.1963 23.137 32.0177 23.1358 31.8442C23.1334 31.4955 23.084 31.0817 23.0153 30.6673C22.8771 29.8336 22.6459 28.9102 22.4754 28.3131L21.3215 28.6428C21.4842 29.2124 21.703 30.089 21.8314 30.8636C21.8961 31.2534 21.9341 31.5959 21.9358 31.8524C21.9367 31.9815 21.9281 32.0677 21.9178 32.1176C21.9045 32.1819 21.9013 32.1265 21.9741 32.0537L22.8226 32.9022ZM21.8984 29.078H25.3983V27.878H21.8984V29.078ZM25.7311 28.9772C26.0169 28.7867 26.4344 28.4528 26.7881 28.0473C27.1227 27.6636 27.4984 27.105 27.4984 26.478H26.2984C26.2984 26.6509 26.1741 26.9256 25.8837 27.2586C25.6123 27.5698 25.2798 27.8359 25.0655 27.9787L25.7311 28.9772ZM27.4984 26.478C27.4984 26.5387 27.4442 26.5744 27.4711 26.559C27.5291 26.5256 27.6615 26.4831 27.8885 26.4632C28.3303 26.4243 28.8931 26.4888 29.2806 26.5663L29.516 25.3896C29.0702 25.3005 28.3831 25.215 27.7833 25.2678C27.4895 25.2936 27.1532 25.3574 26.8726 25.5188C26.561 25.6982 26.2984 26.0173 26.2984 26.478H27.4984ZM29.0655 26.4772L30.5656 27.4772L31.2312 26.4787L29.7311 25.4787L29.0655 26.4772ZM31.0882 27.5472L34.0882 26.5472L33.7087 25.4088L30.7087 26.4088L31.0882 27.5472ZM33.3413 26.2008L34.3412 28.7008L35.4554 28.2552L34.4555 25.7552L33.3413 26.2008ZM38.3983 31.578L45.3984 31.578L45.3984 30.378L38.3983 30.378L38.3983 31.578ZM36.5142 38.9389L42.5143 43.9389L43.2825 43.017L37.2824 38.017L36.5142 38.9389ZM27.4947 26.4109C26.9104 21.2197 24.3481 17.3696 23.4512 15.2447L22.3457 15.7113C23.3535 18.0992 25.7436 21.5824 26.3022 26.5451L27.4947 26.4109ZM22.2008 27.9597L16.2008 24.4597L15.5961 25.4962L21.5961 28.9962L22.2008 27.9597ZM21.8984 32.378H18.3984V33.578H21.8984V32.378ZM22.2984 36.478C22.2984 36.376 22.3276 36.3076 22.3284 36.3054C22.334 36.2911 22.3362 36.2889 22.3285 36.3028C22.3134 36.33 22.2829 36.3786 22.2313 36.4523C22.1296 36.5973 21.9755 36.7979 21.7752 37.0463C21.3764 37.5406 20.82 38.1928 20.1965 38.9066C18.951 40.3326 17.4546 41.9854 16.4565 43.0721L17.3404 43.8838C18.3423 42.7928 19.8459 41.1322 21.1003 39.696C21.7269 38.9787 22.2955 38.3125 22.7092 37.7997C22.9151 37.5444 23.0891 37.3192 23.214 37.141C23.2757 37.053 23.3331 36.9656 23.3775 36.8855C23.3996 36.8458 23.4245 36.7972 23.4454 36.744C23.4615 36.703 23.4984 36.6033 23.4984 36.478H22.2984ZM34.4351 26.7463L37.4351 20.7463L36.3618 20.2096L33.3618 26.2096L34.4351 26.7463ZM37.1668 21.0146L41.1668 19.0146L40.6301 17.9413L36.6301 19.9413L37.1668 21.0146ZM34.8983 29.078C35.0786 29.078 35.246 29.0129 35.344 28.971C35.4626 28.9202 35.5905 28.8527 35.7183 28.779C35.9753 28.6309 36.276 28.432 36.5797 28.2197C37.1893 27.7934 37.8501 27.285 38.2733 26.9465L37.5236 26.0094C37.1134 26.3376 36.4741 26.8292 35.892 27.2363C35.5999 27.4406 35.3318 27.6167 35.119 27.7394C35.0119 27.8011 34.9296 27.843 34.8718 27.8678C34.7934 27.9013 34.818 27.878 34.8983 27.878V29.078ZM31.4678 26.2882C31.1171 25.2361 31.3412 24.4344 31.4353 24.2463L30.3619 23.7096C30.1227 24.1882 29.8801 25.3198 30.3294 26.6677L31.4678 26.2882ZM36.2086 34.5472C37.3095 34.9142 38.8767 35.9617 39.5384 36.458L40.2584 35.498C39.5868 34.9942 37.8871 33.8418 36.5881 33.4088L36.2086 34.5472ZM31.7984 41.478C31.7984 42.4906 32.1223 43.888 32.5272 45.1489C32.932 46.4098 33.4522 47.6403 33.8992 48.3108L34.8977 47.6451C34.5447 47.1156 34.0649 46.0128 33.6697 44.782C33.2745 43.5513 32.9984 42.2986 32.9984 41.478H31.7984ZM33.8992 48.3108C34.2687 48.865 34.5777 49.5602 34.9071 50.2492C35.066 50.5818 35.2311 50.9145 35.4041 51.1999C35.5715 51.4761 35.7779 51.7626 36.0384 51.958L36.7584 50.998C36.6856 50.9434 36.5754 50.8173 36.4303 50.5779C36.2907 50.3477 36.1475 50.0617 35.9898 49.7317C35.6858 49.0958 35.3282 48.2909 34.8977 47.6451L33.8992 48.3108ZM25.3554 41.7225L21.3555 50.2225L22.4413 50.7334L26.4412 42.2334L25.3554 41.7225ZM28.7984 39.978V43.978H29.9984V39.978H28.7984Z" fill="#3743F9"/>
</svg>
