<svg width="61" height="61" viewBox="0 0 61 61" fill="none" xmlns="http://www.w3.org/2000/svg">
<g clip-path="url(#clip0_1050_47)">
<path d="M30.8581 38.5636C30.3842 38.5636 30.0001 38.1795 30.0001 37.7057V5.85793C30.0001 5.38399 30.3842 5 30.8581 5C31.3319 5 31.7162 5.38411 31.7162 5.85793V37.7058C31.7162 38.1796 31.3319 38.5636 30.8581 38.5636Z" fill="#3743F9"/>
<path d="M38.6754 11.0418C38.8174 10.5988 39.2923 10.3534 39.7305 10.5096C45.2529 12.4781 49.9567 16.2594 53.0661 21.249C56.3243 26.4774 57.6201 32.6928 56.7227 38.7875C55.8253 44.8822 52.7929 50.4603 48.1661 54.5276C43.5392 58.5949 37.6184 60.8872 31.4589 60.996C25.2994 61.1047 19.3014 59.0228 14.5339 55.1213C9.76634 51.2198 6.53902 45.7522 5.42708 39.6929C4.31515 33.6336 5.39084 27.3764 8.46246 22.0363C11.3939 16.9401 15.9613 12.9951 21.4108 10.833C21.8432 10.6614 22.3265 10.8899 22.484 11.3276C22.6415 11.7654 22.4135 12.2466 21.9814 12.4192C16.9075 14.4456 12.6552 18.1262 9.9229 22.8764C7.05032 27.8704 6.04433 33.7222 7.08421 39.3888C8.1241 45.0554 11.1423 50.1687 15.6009 53.8174C20.0595 57.4661 25.6688 59.4131 31.4292 59.3114C37.1895 59.2097 42.7266 57.066 47.0537 53.2622C51.3808 49.4585 54.2166 44.2419 55.0559 38.5421C55.8951 32.8423 54.6833 27.0296 51.6362 22.1401C48.738 17.4893 44.3585 13.961 39.2162 12.115C38.7783 11.9578 38.5335 11.4849 38.6754 11.0418Z" fill="#3743F9"/>
</g>
<defs>
<clipPath id="clip0_1050_47">
<rect width="61" height="61" fill="white"/>
</clipPath>
</defs>
</svg>
