<svg width="60" height="60" viewBox="0 0 60 60" fill="none" xmlns="http://www.w3.org/2000/svg">
<path d="M31.9003 51.1905C31.0945 51.1905 30.4137 50.8919 29.9279 50.3261C29.87 50.2708 29.6697 50.0803 28.9905 49.4391C28.4136 48.9 27.5811 48.1966 26.4486 47.2918C25.365 46.4366 24.0378 45.4958 22.5079 44.4987C21.0206 43.5293 19.3171 42.603 17.445 41.7459C15.5887 40.8964 13.5853 40.1847 11.4904 39.6305C9.41316 39.0739 7.22902 38.7921 4.99613 38.7921C4.22797 38.7921 3.54828 38.505 3.03043 37.9617C2.52359 37.423 2.25781 36.7646 2.25781 36.0539V24.091C2.25781 23.3704 2.51633 22.7298 3.02621 22.187C3.54875 21.6395 4.22832 21.3528 4.99613 21.3528C7.22633 21.3528 9.41047 21.0709 11.4881 20.5148C13.5862 19.9599 15.5896 19.2479 17.445 18.3983C19.302 17.5487 21.0036 16.6143 22.5027 15.6212C24.0407 14.6011 25.372 13.657 26.459 12.8158C27.5775 11.9448 28.4034 11.2474 28.9818 10.6851C29.3321 10.3446 29.5892 10.0954 29.7518 9.9377C29.8524 9.83996 29.9158 9.77867 29.9414 9.75359C30.7002 8.94887 31.7478 8.71602 32.8862 9.11633C32.9131 9.12582 32.9395 9.1366 32.9652 9.14867C34.0223 9.64531 34.5811 10.5268 34.5811 11.6977V48.4469C34.5811 49.0081 34.4377 49.5165 34.1553 49.958C34.1531 49.9616 34.1509 49.9651 34.1485 49.9686C33.8495 50.4209 33.4367 50.7556 32.9216 50.963C32.9145 50.9659 32.9076 50.9686 32.9007 50.9711C32.4986 51.1208 32.1807 51.1905 31.9003 51.1905ZM31.8171 10.6091C31.5637 10.6091 31.362 10.7043 31.1634 10.918C31.156 10.9256 31.1488 10.9333 31.1414 10.9407C31.1259 10.9561 31.0543 11.0257 30.9268 11.1493C30.7645 11.3067 30.508 11.5554 30.1583 11.8953C29.535 12.5011 28.6636 13.2382 27.494 14.1488C26.3728 15.0167 25.0078 15.9848 23.4352 17.0278C21.8628 18.0697 20.0838 19.0469 18.1474 19.9329C16.2051 20.8223 14.1106 21.5668 11.922 22.1457C9.70461 22.7391 7.37363 23.0404 4.99613 23.0404C4.68816 23.0404 4.45168 23.138 4.25176 23.3473C4.04445 23.5681 3.94566 23.8059 3.94566 24.0909V36.0536C3.94566 36.3384 4.04422 36.5758 4.25598 36.8009C4.45461 37.0093 4.68406 37.1041 4.99613 37.1041C7.37656 37.1041 9.70766 37.4053 11.9247 37.9994C14.1096 38.5773 16.2041 39.3216 18.1476 40.211C20.0957 41.1028 21.8728 42.0696 23.4297 43.0845C25.002 44.1092 26.3711 45.08 27.4985 45.9698C28.6693 46.9053 29.5341 47.6367 30.1463 48.2087C31.0764 49.0866 31.1253 49.1355 31.1415 49.1516C31.1608 49.1709 31.1793 49.1912 31.1968 49.2124C31.3152 49.3559 31.4914 49.5025 31.9004 49.5027C31.905 49.5025 32.0104 49.5004 32.3006 49.3934C32.4882 49.3161 32.6311 49.2012 32.7372 49.043C32.8437 48.8742 32.8934 48.6845 32.8934 48.4468V11.6977C32.8934 11.2021 32.7167 10.9087 32.2857 10.6946C32.1137 10.6379 31.9562 10.6091 31.8171 10.6091ZM47.4219 52.4132C47.1898 52.4132 46.9589 52.3182 46.7921 52.1316C46.4817 51.7841 46.5117 51.2505 46.8593 50.94C49.8178 48.297 52.1349 45.1236 53.7461 41.5077C55.3502 37.8986 56.1638 34.0549 56.1638 30.084C56.1638 26.0761 55.3502 22.2109 53.7457 18.596C52.1295 14.9748 49.8125 11.8031 46.8598 9.17047C46.5119 8.86039 46.4814 8.32684 46.7916 7.97891C47.1016 7.63121 47.6349 7.60039 47.9832 7.9107C51.1153 10.7032 53.5728 14.0673 55.2876 17.9096C56.9893 21.7432 57.8516 25.8386 57.8516 30.084C57.8516 34.2927 56.9892 38.3671 55.2882 42.194C53.5788 46.03 51.1214 49.3959 47.9838 52.1989C47.8228 52.3425 47.6219 52.4132 47.4219 52.4132Z" fill="#3743F9"/>
<path d="M41.5963 47.9363C41.3644 47.9363 41.1334 47.8412 40.9666 47.6548C40.6561 47.3072 40.686 46.7736 41.0335 46.4631C43.359 44.385 45.1776 41.8931 46.4392 39.057C47.7008 36.2145 48.3406 33.1934 48.3406 30.0782C48.3406 26.9272 47.7009 23.8907 46.4392 21.0529C45.1793 18.2203 43.3603 15.7266 41.0327 13.6409C40.6856 13.3299 40.6563 12.7963 40.9673 12.4492C41.2783 12.102 41.8119 12.0727 42.159 12.3838C44.6651 14.6293 46.624 17.3153 47.9814 20.367C49.3397 23.422 50.0284 26.6893 50.0284 30.0781C50.0284 33.4307 49.3398 36.6822 47.9816 39.7423C46.6221 42.7988 44.6631 45.4832 42.1583 47.7217C41.9973 47.8655 41.7963 47.9363 41.5963 47.9363Z" fill="#3743F9"/>
</svg>
