<svg width="52" height="52" viewBox="0 0 52 52" fill="none" xmlns="http://www.w3.org/2000/svg">
<path d="M26.0469 2C12.7876 2 2 12.7876 2 26.0469C2 39.3062 12.7876 50.0938 26.0469 50.0938C39.3062 50.0938 50.0938 39.3062 50.0938 26.0469C50.0938 12.7876 39.3062 2 26.0469 2ZM26.0469 48.8281C13.4849 48.8281 3.26562 38.6088 3.26562 26.0469C3.26562 13.4849 13.4849 3.26562 26.0469 3.26562C38.6088 3.26562 48.8281 13.4849 48.8281 26.0469C48.8281 38.6088 38.6088 48.8281 26.0469 48.8281Z" fill="#3743F9"/>
<path d="M25.3979 4.54074C25.0783 4.55023 24.7607 4.56668 24.4449 4.5901C24.0962 4.61604 23.8342 4.91916 23.8602 5.26721C23.8842 5.60007 24.1627 5.85382 24.4905 5.85382C24.5056 5.85382 24.5221 5.85319 24.5373 5.85193C24.8347 5.83041 25.1347 5.81459 25.4359 5.80573C25.7852 5.79497 26.0592 5.50325 26.0497 5.15457C26.0389 4.80462 25.7554 4.53757 25.3979 4.54074Z" fill="#3743F9"/>
<path d="M22.1356 4.88626C14.1457 6.35312 7.55371 12.3566 5.3414 20.1794C5.24647 20.5155 5.44138 20.8654 5.7774 20.9603C5.83626 20.9768 5.89321 20.9844 5.9508 20.9844C6.2267 20.9844 6.48046 20.8021 6.55893 20.5231C8.64151 13.1609 14.8456 7.51117 22.3647 6.12974C22.7083 6.06645 22.9355 5.73676 22.8728 5.39314C22.8096 5.05079 22.4856 4.82424 22.1356 4.88626Z" fill="#3743F9"/>
<path d="M52 26C52 40.3594 40.3594 52 26 52C11.6406 52 0 40.3594 0 26C0 11.6406 11.6406 0 26 0C40.3594 0 52 11.6406 52 26ZM1.04 26C1.04 39.785 12.215 50.96 26 50.96C39.785 50.96 50.96 39.785 50.96 26C50.96 12.215 39.785 1.04 26 1.04C12.215 1.04 1.04 12.215 1.04 26Z" fill="#3743F9"/>
</svg>
