<svg width="62" height="62" viewBox="0 0 62 62" fill="none" xmlns="http://www.w3.org/2000/svg">
<g clip-path="url(#clip0_161_1734)">
<path d="M32.24 47.058V53.32H40.92C41.602 53.32 42.16 53.878 42.16 54.56C42.16 55.242 41.602 55.8 40.92 55.8H21.08C20.398 55.8 19.84 55.242 19.84 54.56C19.84 53.878 20.398 53.32 21.08 53.32H29.76V47.058C21.452 46.438 14.88 39.432 14.88 31C14.88 30.318 15.438 29.76 16.12 29.76C16.802 29.76 17.36 30.318 17.36 31C17.36 38.502 23.498 44.64 31 44.64C38.502 44.64 44.64 38.502 44.64 31C44.64 30.318 45.198 29.76 45.88 29.76C46.562 29.76 47.12 30.318 47.12 31C47.12 39.494 40.548 46.438 32.24 47.058ZM40.3 15.5V31C40.3 36.146 36.146 40.3 31 40.3C25.854 40.3 21.7 36.146 21.7 31V15.5C21.7 10.354 25.854 6.20004 31 6.20004C36.146 6.20004 40.3 10.354 40.3 15.5ZM37.82 15.5C37.82 11.718 34.782 8.68002 31 8.68002C27.218 8.68002 24.18 11.718 24.18 15.5V31C24.18 34.782 27.218 37.82 31 37.82C34.782 37.82 37.82 34.782 37.82 31V15.5Z" fill="#3743F9"/>
<path d="M672.08 -403V641.08H-434V-403H672.08ZM677.04 -407.96H-438.96V646.04H677.04V-407.96Z" fill="#0000FF"/>
</g>
<defs>
<clipPath id="clip0_161_1734">
<rect width="62" height="62" fill="white"/>
</clipPath>
</defs>
</svg>
