<svg width="62" height="62" viewBox="0 0 62 62" fill="none" xmlns="http://www.w3.org/2000/svg">
<path d="M30.9842 17.0264C23.2697 17.0264 15.7725 19.7841 9.87508 24.789C9.48375 25.1186 9.43569 25.709 9.76523 26.098C9.95289 26.3177 10.2138 26.4276 10.477 26.4276C10.6898 26.4276 10.9049 26.3544 11.0765 26.2056C16.6399 21.489 23.7091 18.8893 30.9842 18.8893C38.1701 18.8893 45.1706 21.4249 50.6905 26.0271C51.0864 26.3566 51.6745 26.3017 52.0041 25.9104C52.3313 25.5145 52.2787 24.9286 51.8828 24.5991C46.0288 19.7177 38.6049 17.0264 30.9842 17.0264ZM30.8835 52.4593C29.2999 52.4593 28.0137 51.1708 28.0137 49.5895C28.0137 48.0058 29.2999 46.722 30.8835 46.722C32.4626 46.722 33.751 48.0058 33.751 49.5895C33.751 51.1708 32.4626 52.4593 30.8835 52.4593ZM30.8835 44.8592C28.2746 44.8592 26.1532 46.9806 26.1532 49.5895C26.1532 52.1984 28.2746 54.3175 30.8835 54.3175C33.4901 54.3175 35.6115 52.1984 35.6115 49.5895C35.6115 46.9806 33.4901 44.8592 30.8835 44.8592ZM57.5331 17.2393C50.1343 11.1404 40.7858 7.76488 31.1833 7.69623C31.1604 7.69394 31.1421 7.6825 31.1192 7.6825C31.0803 7.6825 31.0414 7.68707 31.0002 7.68707C30.9613 7.68707 30.9224 7.6825 30.8835 7.6825C30.8606 7.6825 30.84 7.69394 30.8171 7.69623C21.2123 7.76488 11.8684 11.1404 4.46736 17.2393C4.07145 17.5665 4.01424 18.1524 4.34149 18.5529C4.52457 18.7726 4.79004 18.8893 5.06008 18.8893C5.26834 18.8893 5.47888 18.8183 5.65051 18.6742C12.7655 12.811 21.7661 9.57508 31.0002 9.54762C40.2366 9.57508 49.235 12.811 56.3499 18.6742C56.5238 18.8183 56.7344 18.8893 56.9403 18.8893C57.2104 18.8893 57.4759 18.7726 57.6612 18.5529C57.9885 18.1524 57.9313 17.5665 57.5331 17.2393ZM30.9842 36.41C27.3157 36.41 23.899 37.8792 21.3611 40.5499C21.0063 40.9229 21.0224 41.5134 21.3954 41.8658C21.5739 42.0351 21.805 42.1198 22.0362 42.1198C22.2833 42.1198 22.5282 42.026 22.7113 41.8338C24.8922 39.5361 27.8306 38.2706 30.9842 38.2706C34.1355 38.2706 37.0716 39.5361 39.2525 41.8292C39.6118 42.2022 40.1954 42.2159 40.5707 41.8658C40.9414 41.5088 40.9575 40.9229 40.6028 40.5499C38.0648 37.8792 34.6481 36.41 30.9842 36.41ZM30.9842 26.4207C25.2538 26.4207 19.7362 28.5444 15.4476 32.4006C15.0677 32.7438 15.0334 33.3343 15.3812 33.7165C15.5643 33.9201 15.8183 34.0231 16.0723 34.0231C16.292 34.0231 16.5163 33.9476 16.6925 33.7851C20.6402 30.2379 25.7138 28.2836 30.9842 28.2836C36.2523 28.2836 41.3259 30.2334 45.2713 33.7828C45.6535 34.1261 46.2416 34.0941 46.5849 33.7119C46.9305 33.3297 46.8984 32.7416 46.5139 32.396C42.2299 28.5444 36.7123 26.4207 30.9842 26.4207Z" fill="#3743F9"/>
</svg>
