<svg width="166" height="166" viewBox="0 0 166 166" fill="none" xmlns="http://www.w3.org/2000/svg">
<path d="M69.8263 4.67516C77.82 -0.588852 88.18 -0.588852 96.1737 4.67516C100.486 7.51467 105.6 8.88496 110.754 8.58185C120.308 8.01993 129.28 13.1999 133.571 21.7555C135.886 26.3706 139.629 30.1143 144.244 32.4288C152.8 36.7195 157.98 45.6916 157.418 55.2463C157.115 60.4003 158.485 65.5144 161.325 69.8263C166.589 77.82 166.589 88.18 161.325 96.1737C158.485 100.486 157.115 105.6 157.418 110.754C157.98 120.308 152.8 129.28 144.244 133.571C139.629 135.886 135.886 139.629 133.571 144.244C129.28 152.8 120.308 157.98 110.754 157.418C105.6 157.115 100.486 158.485 96.1737 161.325C88.18 166.589 77.82 166.589 69.8263 161.325C65.5144 158.485 60.4003 157.115 55.2463 157.418C45.6916 157.98 36.7196 152.8 32.4288 144.244C30.1143 139.629 26.3706 135.886 21.7555 133.571C13.1999 129.28 8.01993 120.308 8.58185 110.754C8.88496 105.6 7.51467 100.486 4.67516 96.1737C-0.588852 88.18 -0.588852 77.82 4.67516 69.8263C7.51467 65.5144 8.88496 60.4003 8.58185 55.2463C8.01993 45.6916 13.1999 36.7196 21.7555 32.4288C26.3706 30.1143 30.1143 26.3706 32.4288 21.7555C36.7195 13.1999 45.6916 8.01993 55.2463 8.58185C60.4003 8.88496 65.5144 7.51467 69.8263 4.67516Z" fill="#E6E7FF"/>
</svg>
