<svg width="56" height="56" viewBox="0 0 56 56" fill="none" xmlns="http://www.w3.org/2000/svg">
<path d="M47.261 32.5937C46.7579 34.6719 45.9868 36.5422 44.8712 38.3578C44.6798 38.6695 44.7454 39.0961 44.997 39.3531C45.7079 40.064 46.4243 40.775 47.1298 41.4859C47.168 41.5242 47.2063 41.568 47.2446 41.6062C47.3266 41.6883 47.4524 41.918 47.4907 42.0437C47.5071 42.093 47.518 42.1422 47.529 42.1914C47.5891 42.4156 47.529 42.0984 47.5399 42.2351C47.5509 42.35 47.5509 42.4594 47.5454 42.5742C47.5345 42.7383 47.5399 42.6125 47.5454 42.5797C47.529 42.6562 47.5126 42.7273 47.4907 42.7984C47.4743 42.8476 47.4579 42.8969 47.4415 42.9406C47.5016 42.793 47.4032 43.0062 47.3923 43.0226C47.3649 43.0664 47.3376 43.1101 47.3102 43.1539C47.1899 43.3398 47.4032 43.0773 47.2391 43.2359C47.2173 43.2578 47.2009 43.2797 47.179 43.2961C47.1516 43.3234 47.1298 43.3453 47.1024 43.3726C46.9712 43.5039 46.8399 43.6351 46.7141 43.7609C45.8173 44.6578 44.9149 45.5601 44.0181 46.457C43.7774 46.6976 43.5423 46.9437 43.2962 47.1789C43.2743 47.2008 43.247 47.2226 43.2305 47.239C43.061 47.4086 43.2907 47.2062 43.1813 47.2828C43.1266 47.3211 43.072 47.3539 43.0173 47.3867C42.9735 47.414 42.9243 47.4359 42.8805 47.4578C43.0009 47.3976 42.8915 47.4523 42.8641 47.4633C42.793 47.4851 42.7165 47.5015 42.6454 47.5234C42.4813 47.5726 42.7493 47.5344 42.5634 47.5398C42.4649 47.5453 42.361 47.5453 42.2626 47.5398C42.0438 47.5344 42.3938 47.589 42.1805 47.5234C42.1313 47.507 42.0821 47.5015 42.0329 47.4851C41.9837 47.4687 41.9345 47.4523 41.8907 47.4359C42.0493 47.4961 41.8251 47.3976 41.8087 47.3867C41.7649 47.3594 41.7212 47.332 41.6774 47.3047C41.5024 47.1898 41.743 47.3867 41.5954 47.2336C40.8516 46.4789 40.0915 45.7351 39.3423 44.9859C39.0907 44.7344 38.6587 44.6687 38.347 44.8601C36.5423 45.9867 34.672 46.7578 32.5938 47.2609C32.2438 47.343 31.9923 47.6984 31.9923 48.0539C31.9923 49.0656 31.9977 50.0828 31.9923 51.0945C31.9923 51.1656 31.9923 51.2312 31.9868 51.3023C31.9813 51.5101 32.0305 51.2367 31.9813 51.3406C31.9595 51.3898 31.954 51.4609 31.9376 51.5156C31.9266 51.5594 31.9102 51.6086 31.8938 51.6523C31.9485 51.4883 31.8774 51.6797 31.861 51.718C31.8337 51.7726 31.8009 51.8164 31.7681 51.8711C31.7462 51.9094 31.6423 52.0242 31.7516 51.9039C31.6751 51.9914 31.593 52.0734 31.5055 52.15C31.6259 52.0461 31.4345 52.1937 31.3852 52.2265C31.3251 52.2648 31.2595 52.2976 31.1993 52.325C31.3305 52.2648 31.1774 52.325 31.1282 52.3414C31.0845 52.3523 31.0352 52.3633 30.986 52.3797C30.7782 52.4398 31.079 52.3851 30.9477 52.3906C30.8821 52.3906 30.822 52.3961 30.7563 52.4015C30.7235 52.4015 30.6852 52.4015 30.6524 52.4015C30.4774 52.4015 30.3024 52.4015 30.1274 52.4015C28.8423 52.4015 27.5626 52.4015 26.2774 52.4015C25.9384 52.4015 25.5938 52.407 25.2548 52.4015C25.2055 52.4015 25.1509 52.3961 25.1016 52.3961C24.8993 52.3906 25.1673 52.4398 25.0634 52.3906C25.0141 52.3687 24.943 52.3633 24.8884 52.3469C24.8446 52.3359 24.7954 52.3195 24.7516 52.3031C24.9212 52.3633 24.7134 52.2812 24.686 52.2703C24.6423 52.2484 24.604 52.2265 24.5657 52.1992C24.5438 52.1828 24.3743 52.0461 24.5055 52.1609C24.418 52.0844 24.336 52.0023 24.2595 51.9148C24.3688 52.0351 24.1938 51.8109 24.1665 51.7617C24.1391 51.7125 24.1118 51.6578 24.0845 51.6031C24.1501 51.7453 24.0954 51.6305 24.0899 51.5976C24.0735 51.5375 24.0571 51.4828 24.0407 51.4226C24.0298 51.3898 24.0243 51.3515 24.0188 51.3133C24.0298 51.4117 24.0298 51.4117 24.0188 51.3133C23.9915 50.2305 24.0134 49.1476 24.0134 48.0594C24.0134 47.7094 23.7618 47.3539 23.4118 47.2664C21.3337 46.7633 19.4634 45.9922 17.6477 44.8765C17.336 44.6851 16.9095 44.7508 16.6524 45.0023C15.9415 45.7133 15.2305 46.4297 14.5196 47.1351C14.4813 47.1734 14.4376 47.2117 14.3993 47.25C14.3173 47.332 14.0876 47.4578 13.9618 47.4961C13.9126 47.5125 13.8634 47.5234 13.8141 47.5344C13.5899 47.5945 13.9071 47.5344 13.7704 47.5453C13.6556 47.5562 13.5462 47.5562 13.4313 47.5508C13.2673 47.5398 13.393 47.5453 13.4259 47.5508C13.3493 47.5344 13.2782 47.518 13.2071 47.4961C13.1579 47.4797 13.1087 47.4633 13.0649 47.4469C13.2126 47.507 12.9993 47.4086 12.9829 47.3976C12.9391 47.3703 12.8954 47.343 12.8516 47.3156C12.6657 47.1953 12.9282 47.4086 12.7696 47.2445C12.7477 47.2226 12.7259 47.2062 12.7095 47.1844C12.6821 47.157 12.6602 47.1351 12.6329 47.1078C12.5016 46.9765 12.3704 46.8453 12.2446 46.7195C11.3477 45.8226 10.4454 44.9203 9.54852 44.0234C9.30789 43.7828 9.0618 43.5476 8.82664 43.3015C8.80477 43.2797 8.78289 43.2523 8.76649 43.2359C8.59696 43.0664 8.7993 43.2961 8.72274 43.1867C8.68446 43.132 8.65164 43.0773 8.61883 43.0226C8.59149 42.9789 8.56961 42.9297 8.54774 42.8859C8.60789 43.0062 8.55321 42.8969 8.54227 42.8695C8.52039 42.7984 8.50399 42.7219 8.48211 42.6508C8.43289 42.4867 8.47117 42.7547 8.46571 42.5687C8.46024 42.4703 8.46024 42.3664 8.46571 42.268C8.47117 42.0492 8.41649 42.3992 8.48211 42.1859C8.49852 42.1367 8.50399 42.0875 8.52039 42.0383C8.5368 41.989 8.55321 41.9398 8.56961 41.8961C8.50946 42.0547 8.60789 41.8305 8.61883 41.814C8.64617 41.7703 8.67352 41.7265 8.70086 41.6828C8.81571 41.5078 8.61883 41.7484 8.77196 41.6008C9.52664 40.857 10.2704 40.0969 11.0196 39.3476C11.2712 39.0961 11.3368 38.664 11.1454 38.3523C10.0134 36.5422 9.24227 34.6719 8.73914 32.5937C8.65711 32.2437 8.30164 31.9922 7.94617 31.9922C6.93446 31.9922 5.91727 31.9976 4.90555 31.9922C4.83446 31.9922 4.76883 31.9922 4.69774 31.9867C4.48992 31.9812 4.76336 32.0305 4.65946 31.9812C4.61024 31.9594 4.53914 31.9539 4.48446 31.9375C4.44071 31.9265 4.39149 31.9101 4.34774 31.8937C4.5118 31.9484 4.32039 31.8773 4.28211 31.8609C4.22742 31.8336 4.18367 31.8008 4.12899 31.768C4.09071 31.7461 3.97586 31.6422 4.09617 31.7515C4.00867 31.675 3.92664 31.593 3.85008 31.5055C3.95399 31.6258 3.80633 31.4344 3.77352 31.3851C3.73524 31.325 3.70242 31.2594 3.67508 31.1992C3.73524 31.3305 3.67508 31.1773 3.65867 31.1281C3.64774 31.0844 3.6368 31.0351 3.62039 30.9859C3.56024 30.7781 3.61492 31.0789 3.60946 30.9476C3.60946 30.882 3.60399 30.8219 3.59852 30.7562C3.59852 30.7234 3.59852 30.6851 3.59852 30.6523C3.59852 30.4773 3.59852 30.3023 3.59852 30.1273C3.59852 28.8422 3.59852 27.5625 3.59852 26.2773C3.59852 25.9383 3.59305 25.5937 3.59852 25.2547C3.59852 25.2055 3.60399 25.1508 3.60399 25.1015C3.60946 24.8992 3.56024 25.1672 3.60946 25.0633C3.63133 25.014 3.6368 24.943 3.65321 24.8883C3.66414 24.8445 3.68055 24.7953 3.69696 24.7515C3.6368 24.9211 3.71883 24.7133 3.72977 24.6859C3.75164 24.6422 3.77352 24.6039 3.80086 24.5656C3.81727 24.5437 3.95399 24.3742 3.83914 24.5055C3.91571 24.418 3.99774 24.3359 4.08524 24.2594C3.96492 24.3687 4.18914 24.1937 4.23836 24.1664C4.28758 24.139 4.34227 24.1117 4.39696 24.0844C4.25477 24.15 4.36961 24.0953 4.40242 24.0898C4.46258 24.0734 4.51727 24.057 4.57742 24.0406C4.61024 24.0297 4.64852 24.0242 4.6868 24.0187C4.58836 24.0297 4.58836 24.0297 4.6868 24.0187C5.76961 23.9914 6.85242 24.0133 7.94071 24.0133C8.29071 24.0133 8.64617 23.7617 8.73367 23.4117C9.2368 21.3336 10.0079 19.4633 11.1235 17.6476C11.3149 17.3359 11.2493 16.9094 10.9977 16.6523C10.2868 15.9414 9.57039 15.2305 8.86492 14.5195C8.82664 14.4812 8.78836 14.4375 8.75008 14.3992C8.66805 14.3172 8.54227 14.0875 8.50399 13.9617C8.48758 13.9125 8.47664 13.8633 8.46571 13.814C8.40555 13.5898 8.46571 13.907 8.45477 13.7703C8.44383 13.6555 8.44383 13.5461 8.4493 13.4312C8.46024 13.2672 8.45477 13.393 8.4493 13.4258C8.46571 13.3492 8.48211 13.2781 8.50399 13.207C8.52039 13.1578 8.5368 13.1086 8.55321 13.0648C8.49305 13.2125 8.59149 12.9992 8.60242 12.9828C8.62977 12.939 8.65711 12.8953 8.68446 12.8515C8.80477 12.6656 8.59149 12.9281 8.75555 12.7695C8.77742 12.7476 8.79383 12.7258 8.81571 12.7094C8.84305 12.682 8.86492 12.6601 8.89227 12.6328C9.02352 12.5015 9.15477 12.3703 9.28055 12.2445C10.1774 11.3476 11.0798 10.4453 11.9766 9.54842C12.2173 9.3078 12.4524 9.0617 12.6985 8.82655C12.7204 8.80467 12.7477 8.7828 12.7641 8.76639C12.9337 8.59686 12.704 8.7992 12.8134 8.72264C12.868 8.68436 12.9227 8.65155 12.9774 8.61873C13.0212 8.59139 13.0704 8.56951 13.1141 8.54764C12.9938 8.6078 13.1032 8.55311 13.1306 8.54217C13.2016 8.5203 13.2782 8.50389 13.3493 8.48202C13.5134 8.4328 13.2454 8.47108 13.4313 8.46561C13.5298 8.46014 13.6337 8.46014 13.7321 8.46561C13.9509 8.47108 13.6009 8.41639 13.8141 8.48202C13.8634 8.49842 13.9126 8.50389 13.9618 8.5203C14.011 8.5367 14.0602 8.55311 14.104 8.56951C13.9454 8.50936 14.1696 8.6078 14.186 8.61873C14.2298 8.64608 14.2735 8.67342 14.3173 8.70077C14.4923 8.81561 14.2516 8.61873 14.3993 8.77186C15.143 9.52655 15.9032 10.2703 16.6524 11.0195C16.904 11.2711 17.336 11.3367 17.6477 11.1453C19.4579 10.0133 21.3282 9.24217 23.4063 8.73905C23.7563 8.65701 24.0079 8.30155 24.0079 7.94608C24.0079 6.93436 24.0024 5.91717 24.0079 4.90545C24.0079 4.83436 24.0079 4.76873 24.0134 4.69764C24.0188 4.48983 23.9696 4.76326 24.0188 4.65936C24.0407 4.61014 24.0462 4.53905 24.0626 4.48436C24.0735 4.44061 24.0899 4.39139 24.1063 4.34764C24.0516 4.5117 24.1227 4.3203 24.1391 4.28201C24.1665 4.22733 24.1993 4.18358 24.2321 4.12889C24.254 4.09061 24.3579 3.97576 24.2485 4.09608C24.3251 4.00858 24.4071 3.92655 24.4946 3.84998C24.3743 3.95389 24.5657 3.80623 24.6149 3.77342C24.6751 3.73514 24.7407 3.70233 24.8009 3.67498C24.6696 3.73514 24.8227 3.67498 24.872 3.65858C24.9157 3.64764 24.9649 3.6367 25.0141 3.6203C25.222 3.56014 24.9212 3.61483 25.0524 3.60936C25.118 3.60936 25.1782 3.60389 25.2438 3.59842C25.2766 3.59842 25.3149 3.59842 25.3477 3.59842C25.5227 3.59842 25.6977 3.59842 25.8727 3.59842C27.1579 3.59842 28.4376 3.59842 29.7227 3.59842C30.0618 3.59842 30.4063 3.59295 30.7454 3.59842C30.7946 3.59842 30.8493 3.60389 30.8985 3.60389C31.1009 3.60936 30.8329 3.56014 30.9368 3.60936C30.986 3.63123 31.0571 3.6367 31.1118 3.65311C31.1556 3.66405 31.2048 3.68045 31.2485 3.69686C31.079 3.6367 31.2868 3.71873 31.3141 3.72967C31.3579 3.75155 31.3962 3.77342 31.4345 3.80076C31.4563 3.81717 31.6259 3.95389 31.4946 3.83905C31.5821 3.91561 31.6641 3.99764 31.7407 4.08514C31.6313 3.96483 31.8063 4.18905 31.8337 4.23826C31.861 4.28748 31.8884 4.34217 31.9157 4.39686C31.8501 4.25467 31.9048 4.36951 31.9102 4.40233C31.9266 4.46248 31.9431 4.51717 31.9595 4.57733C31.9704 4.61014 31.9759 4.64842 31.9813 4.6867C31.9704 4.58826 31.9704 4.58826 31.9813 4.6867C32.0087 5.76951 31.9868 6.85233 31.9868 7.94061C31.9868 8.29061 32.2384 8.64608 32.5884 8.73358C34.6665 9.2367 36.5368 10.0078 38.3524 11.1234C38.6641 11.3148 39.0907 11.2492 39.3477 10.9976C40.0587 10.2867 40.7696 9.5703 41.4805 8.86483C41.5188 8.82655 41.5626 8.78826 41.6009 8.74998C41.6829 8.66795 41.9126 8.54217 42.0384 8.50389C42.0876 8.48748 42.1368 8.47655 42.186 8.46561C42.4102 8.40545 42.093 8.46561 42.2298 8.45467C42.3446 8.44373 42.454 8.44373 42.5688 8.4492C42.7329 8.46014 42.6071 8.45467 42.5743 8.4492C42.6509 8.46561 42.722 8.48201 42.793 8.50389C42.8423 8.5203 42.8915 8.5367 42.9352 8.55311C42.7876 8.49295 43.0009 8.59139 43.0173 8.60233C43.061 8.62967 43.1048 8.65701 43.1485 8.68436C43.3345 8.80467 43.072 8.59139 43.2305 8.75545C43.2524 8.77733 43.2743 8.79373 43.2907 8.81561C43.318 8.84295 43.3399 8.86483 43.3673 8.89217C43.4985 9.02342 43.6298 9.15467 43.7555 9.28045C44.6524 10.1773 45.5548 11.0797 46.4516 11.9765C46.6923 12.2172 46.9384 12.4523 47.1735 12.6984C47.1954 12.7203 47.2173 12.7476 47.2337 12.764C47.4032 12.9336 47.2009 12.7039 47.2774 12.8133C47.3157 12.868 47.3485 12.9226 47.3813 12.9773C47.4087 13.0211 47.4305 13.0703 47.4524 13.114C47.3923 12.9937 47.447 13.1031 47.4579 13.1305C47.4798 13.2015 47.4962 13.2781 47.5181 13.3492C47.5673 13.5133 47.529 13.2453 47.5345 13.4312C47.5399 13.5297 47.5399 13.6336 47.5345 13.732C47.529 13.9508 47.5837 13.6008 47.5181 13.814C47.5016 13.8633 47.4962 13.9125 47.4798 13.9617C47.4634 14.0109 47.447 14.0601 47.4305 14.1039C47.4907 13.9453 47.3923 14.1695 47.3813 14.1859C47.354 14.2297 47.3266 14.2734 47.2993 14.3172C47.1845 14.4922 47.3813 14.2515 47.2282 14.3992C46.4735 15.143 45.7298 15.9031 44.9805 16.6523C44.729 16.9039 44.6634 17.3359 44.8548 17.6476C45.9868 19.4578 46.7579 21.3281 47.261 23.4062C47.343 23.7562 47.6985 24.0078 48.054 24.0078C49.0657 24.0078 50.0829 24.0023 51.0946 24.0078C51.1657 24.0078 51.2313 24.0078 51.3024 24.0133C51.5102 24.0187 51.2368 23.9695 51.3407 24.0187C51.3899 24.0406 51.461 24.0461 51.5157 24.0625C51.5595 24.0734 51.6087 24.0898 51.6524 24.1062C51.4884 24.0515 51.6798 24.1226 51.718 24.139C51.7727 24.1664 51.8165 24.1992 51.8712 24.232C51.9095 24.2539 52.0243 24.3578 51.904 24.2484C51.9915 24.325 52.0735 24.407 52.1501 24.4945C52.0462 24.3742 52.1938 24.5656 52.2266 24.6148C52.2649 24.675 52.2977 24.7406 52.3251 24.8008C52.2649 24.6695 52.3251 24.8226 52.3415 24.8719C52.3524 24.9156 52.3634 24.9648 52.3798 25.014C52.4399 25.2219 52.3852 24.9211 52.3907 25.0523C52.3907 25.118 52.3962 25.1781 52.4016 25.2437C52.4016 25.2765 52.4016 25.3148 52.4016 25.3476C52.4016 25.5226 52.4016 25.6976 52.4016 25.8726C52.4016 27.1578 52.4016 28.4375 52.4016 29.7226C52.4016 30.0617 52.4071 30.4062 52.4016 30.7453C52.4016 30.7945 52.3962 30.8492 52.3962 30.8984C52.3907 31.1008 52.4399 30.8328 52.3907 30.9367C52.3688 30.9859 52.3634 31.057 52.347 31.1117C52.336 31.1555 52.3196 31.2047 52.3032 31.2484C52.3634 31.0789 52.2813 31.2867 52.2704 31.314C52.2485 31.3578 52.2266 31.3961 52.1993 31.4344C52.1829 31.4562 52.0462 31.6258 52.161 31.4945C52.0845 31.582 52.0024 31.664 51.9149 31.7406C52.0352 31.6312 51.811 31.8062 51.7618 31.8336C51.7126 31.8609 51.6579 31.8883 51.6032 31.9156C51.7454 31.85 51.6306 31.9047 51.5977 31.9101C51.5376 31.9265 51.4829 31.943 51.4227 31.9594C51.3899 31.9703 51.3516 31.9758 51.3134 31.9812C51.4118 31.9703 51.4118 31.9703 51.3134 31.9812C50.2305 32.0086 49.1477 31.9867 48.0595 31.9867C47.6329 31.9867 47.2173 32.364 47.2391 32.807C47.261 33.25 47.6001 33.6273 48.0595 33.6273C49.0876 33.6273 50.1212 33.6437 51.1493 33.6273C52.3634 33.6109 53.4134 32.8781 53.8563 31.7515C54.0477 31.2594 54.0423 30.7453 54.0423 30.2258C54.0423 28.8695 54.0423 27.5187 54.0423 26.1625C54.0423 25.807 54.0641 25.4461 54.0368 25.0906C53.9493 23.8492 53.0907 22.739 51.8602 22.4492C51.2095 22.2961 50.493 22.3617 49.8313 22.3617C49.2407 22.3617 48.6556 22.3617 48.0649 22.3617C48.3274 22.564 48.5899 22.7609 48.8579 22.9633C48.3329 20.7976 47.4688 18.7086 46.304 16.8055C46.2602 17.139 46.2165 17.4672 46.1782 17.8008C46.9056 17.0734 47.6438 16.357 48.3602 15.6187C49.2134 14.7383 49.4431 13.464 48.9399 12.3484C48.7212 11.8617 48.3438 11.5117 47.9774 11.1398C47.0313 10.1937 46.0907 9.25311 45.1446 8.30701C44.904 8.06639 44.6688 7.81483 44.4173 7.58514C43.4712 6.71014 41.9673 6.5242 40.879 7.26248C40.3321 7.62889 39.8837 8.16483 39.4243 8.6242C39.0196 9.02889 38.6149 9.43358 38.2102 9.83826C38.5438 9.79451 38.872 9.75076 39.2056 9.71248C37.3024 8.54764 35.2134 7.68358 33.0477 7.15858C33.2501 7.42108 33.447 7.68358 33.6493 7.95155C33.6493 6.92342 33.6657 5.88983 33.6493 4.8617C33.6329 3.64764 32.9001 2.59764 31.7735 2.15467C31.2813 1.96326 30.7673 1.96873 30.2477 1.96873C28.8915 1.96873 27.5407 1.96873 26.1845 1.96873C25.829 1.96873 25.4681 1.94686 25.1126 1.9742C23.8712 2.0617 22.761 2.9203 22.4712 4.15076C22.318 4.80155 22.3837 5.51795 22.3837 6.17967C22.3837 6.7703 22.3837 7.35545 22.3837 7.94608C22.586 7.68358 22.7829 7.42108 22.9852 7.15311C20.8196 7.67811 18.7305 8.54217 16.8274 9.70701C17.161 9.75076 17.4891 9.79451 17.8227 9.8328C17.0954 9.10545 16.379 8.36717 15.6407 7.65076C14.7602 6.79764 13.486 6.56795 12.3704 7.07108C11.8837 7.28983 11.5337 7.66717 11.1618 8.03358C10.2157 8.97967 9.27508 9.9203 8.32899 10.8664C8.08836 11.107 7.8368 11.3422 7.60711 11.5937C6.73211 12.5398 6.54617 14.0437 7.28446 15.132C7.65086 15.6789 8.1868 16.1273 8.64617 16.5867C9.05086 16.9914 9.45555 17.3961 9.86024 17.8008C9.81649 17.4672 9.77274 17.139 9.73446 16.8055C8.56961 18.7086 7.70555 20.7976 7.18055 22.9633C7.44305 22.7609 7.70555 22.564 7.97352 22.3617C6.94539 22.3617 5.9118 22.3453 4.88367 22.3617C3.66961 22.3781 2.61961 23.1109 2.17664 24.2375C1.98524 24.7297 1.99071 25.2437 1.99071 25.7633C1.99071 27.1195 1.99071 28.4703 1.99071 29.8265C1.99071 30.182 1.96883 30.543 1.99617 30.8984C2.08367 32.1398 2.94227 33.25 4.17274 33.5398C4.82352 33.693 5.53992 33.6273 6.20164 33.6273C6.79227 33.6273 7.37742 33.6273 7.96805 33.6273C7.70555 33.425 7.44305 33.2281 7.17508 33.0258C7.70008 35.1914 8.56414 37.2805 9.72899 39.1836C9.77274 38.85 9.81649 38.5219 9.85477 38.1883C9.12742 38.9156 8.38914 39.632 7.67274 40.3703C6.81961 41.2508 6.58992 42.525 7.09305 43.6406C7.3118 44.1273 7.68914 44.4773 8.05555 44.8492C9.00164 45.7953 9.94227 46.7359 10.8884 47.682C11.129 47.9226 11.3641 48.1742 11.6157 48.4039C12.5618 49.2789 14.0657 49.4648 15.154 48.7265C15.7009 48.3601 16.1493 47.8242 16.6087 47.3648C17.0134 46.9601 17.418 46.5555 17.8227 46.1508C17.4891 46.1945 17.161 46.2383 16.8274 46.2765C18.7305 47.4414 20.8196 48.3055 22.9852 48.8305C22.7829 48.568 22.586 48.3055 22.3837 48.0375C22.3837 49.0656 22.3673 50.0992 22.3837 51.1273C22.4001 52.3414 23.1329 53.3914 24.2595 53.8344C24.7516 54.0258 25.2657 54.0203 25.7852 54.0203C27.1415 54.0203 28.4923 54.0203 29.8485 54.0203C30.204 54.0203 30.5649 54.0422 30.9204 54.0148C32.1618 53.9273 33.272 53.0687 33.5618 51.8383C33.7149 51.1875 33.6493 50.4711 33.6493 49.8094C33.6493 49.2187 33.6493 48.6336 33.6493 48.043C33.447 48.3055 33.2501 48.568 33.0477 48.8359C35.2134 48.3109 37.3024 47.4469 39.2056 46.282C38.872 46.2383 38.5438 46.1945 38.2102 46.1562C38.9376 46.8836 39.654 47.6219 40.3923 48.3383C41.2727 49.1914 42.547 49.4211 43.6626 48.918C44.1493 48.6992 44.4993 48.3219 44.8712 47.9555C45.8173 47.0094 46.7579 46.0687 47.704 45.1226C47.9446 44.882 48.1962 44.6469 48.4259 44.3953C49.3009 43.4492 49.4868 41.9453 48.7485 40.857C48.3821 40.3101 47.8462 39.8617 47.3868 39.4023C46.9821 38.9976 46.5774 38.593 46.1727 38.1883C46.2165 38.5219 46.2602 38.85 46.2985 39.1836C47.4634 37.2805 48.3274 35.1914 48.8524 33.0258C48.9509 32.6101 48.7212 32.118 48.2782 32.014C47.8462 31.9265 47.3704 32.1508 47.261 32.5937Z" fill="#3743F9"/>
<path d="M36.8592 28.0001C36.8592 28.2571 36.8482 28.5087 36.8318 28.7657C36.8209 28.8806 36.81 28.9899 36.799 29.1048C36.7935 29.1485 36.7717 29.3126 36.7935 29.1485C36.7826 29.2251 36.7717 29.2962 36.7607 29.3727C36.6787 29.8595 36.5639 30.3407 36.4107 30.8056C36.3451 31.0134 36.2631 31.2157 36.1865 31.4235C36.099 31.6423 36.2303 31.3306 36.1701 31.4618C36.1482 31.5165 36.1209 31.5712 36.0935 31.6259C36.0389 31.7462 35.9787 31.8665 35.9185 31.9813C35.7053 32.397 35.4646 32.7962 35.1912 33.179C35.1201 33.2774 35.049 33.3704 34.9779 33.4688C35.0764 33.3376 34.8904 33.5727 34.8631 33.611C34.7045 33.8024 34.535 33.9884 34.36 34.1688C34.2123 34.322 34.0537 34.4696 33.8951 34.6173C33.8076 34.6993 33.7146 34.7759 33.6271 34.8524C33.5889 34.8852 33.556 34.9126 33.5178 34.9454C33.4795 34.9782 33.4412 35.0056 33.4084 35.0329C33.4685 34.9837 33.4795 34.9782 33.4303 35.0165C33.0584 35.3009 32.6646 35.5524 32.26 35.7821C32.0467 35.897 31.8334 36.0063 31.6146 36.1048C31.5709 36.1266 31.5271 36.1431 31.4834 36.1649C31.2701 36.2634 31.5764 36.1266 31.4451 36.1813C31.3193 36.2306 31.199 36.2798 31.0732 36.3235C30.6139 36.4876 30.1381 36.6243 29.6568 36.7173C29.5584 36.7391 29.46 36.7556 29.3615 36.772C29.2904 36.7829 29.2139 36.7938 29.1373 36.8048C29.1701 36.7993 29.2959 36.7884 29.1318 36.8048C28.8803 36.8321 28.6287 36.854 28.3771 36.8649C27.8685 36.8868 27.36 36.8595 26.8514 36.8048C26.6107 36.7774 26.9553 36.8212 26.8076 36.7993C26.7475 36.7884 26.6818 36.7829 26.6217 36.772C26.5123 36.7556 26.4029 36.7337 26.2935 36.7118C26.042 36.6626 25.7904 36.6024 25.5389 36.5313C25.3256 36.4712 25.1178 36.4056 24.91 36.329C24.7951 36.2852 24.6857 36.2415 24.5709 36.1977C24.4232 36.1376 24.5381 36.1813 24.5654 36.1977C24.4889 36.1649 24.4123 36.1321 24.3357 36.0938C23.9092 35.897 23.499 35.6673 23.1107 35.4102C22.9084 35.279 22.717 35.1423 22.5256 34.9946C22.6514 35.0931 22.4545 34.9345 22.4107 34.9016C22.3014 34.8087 22.192 34.7157 22.0881 34.6227C21.7435 34.311 21.4209 33.9774 21.1256 33.6165C21.0982 33.5782 20.9068 33.3431 21.0107 33.4743C20.9396 33.3813 20.8685 33.2829 20.7975 33.1845C20.6607 32.9876 20.5295 32.7907 20.4037 32.5829C20.2779 32.3751 20.1631 32.1673 20.0537 31.954C20.0045 31.8556 19.9553 31.7571 19.9115 31.6587C19.8842 31.604 19.8623 31.5493 19.835 31.4946C19.7365 31.2759 19.8896 31.6477 19.8021 31.4235C19.6217 30.9696 19.4685 30.5048 19.3592 30.029C19.31 29.8102 19.2662 29.5915 19.2279 29.3727C19.217 29.3126 19.206 29.247 19.2006 29.1868C19.1787 29.0446 19.2225 29.3837 19.1951 29.1431C19.1787 29.0063 19.1678 28.8696 19.1568 28.7274C19.1185 28.2298 19.1185 27.7321 19.1623 27.2399C19.1732 27.1141 19.1842 26.9884 19.2006 26.8626C19.217 26.6985 19.206 26.8243 19.2006 26.8571C19.2115 26.797 19.217 26.7313 19.2279 26.6712C19.2717 26.4141 19.3209 26.1571 19.381 25.9056C19.4959 25.4407 19.6435 24.9923 19.824 24.5493C19.8787 24.4181 19.742 24.7243 19.8404 24.511C19.8623 24.4673 19.8787 24.4235 19.9006 24.3798C19.9498 24.2704 20.0045 24.161 20.0592 24.0516C20.1685 23.8384 20.2834 23.6251 20.4092 23.4227C20.535 23.2204 20.6662 23.0181 20.8029 22.8212C20.8631 22.7337 20.9287 22.6462 20.9943 22.5587C21.0764 22.4493 20.874 22.7063 21.0217 22.5259C21.0654 22.4712 21.1092 22.4165 21.1584 22.3618C21.4646 21.9954 21.7982 21.6563 22.1537 21.3391C22.2357 21.2681 22.3178 21.197 22.3998 21.1313C22.4381 21.104 22.6678 20.9126 22.542 21.0165C22.7334 20.8688 22.9248 20.7321 23.1271 20.6009C23.5264 20.3384 23.9529 20.1032 24.385 19.9063C24.4396 19.879 24.4943 19.8571 24.549 19.8298C24.6803 19.7751 24.3685 19.9009 24.5873 19.8134C24.6912 19.7751 24.7896 19.7313 24.8935 19.6931C25.1342 19.6056 25.3803 19.529 25.6264 19.4579C25.8396 19.3977 26.0529 19.3485 26.2717 19.3048C26.392 19.2774 26.5178 19.2556 26.6381 19.2391C26.6873 19.2337 26.7365 19.2227 26.7857 19.2173C26.8842 19.2009 26.8842 19.2009 26.7912 19.2173C26.8295 19.2118 26.8678 19.2063 26.9006 19.2063C27.3928 19.1516 27.8904 19.1298 28.3881 19.1516C28.6396 19.1626 28.8912 19.1845 29.1428 19.2118C29.1756 19.2173 29.3068 19.2337 29.1482 19.2118C29.2084 19.2227 29.274 19.2282 29.3342 19.2391C29.4709 19.261 29.6021 19.2829 29.7389 19.3102C30.2201 19.4087 30.6904 19.5454 31.1498 19.7149C31.2428 19.7477 31.3303 19.786 31.4232 19.8188C31.6475 19.9063 31.2756 19.7477 31.4943 19.8516C31.5381 19.8735 31.5818 19.8899 31.6256 19.9118C31.8443 20.0102 32.0576 20.1196 32.2709 20.2345C32.692 20.4641 33.0912 20.7266 33.4685 21.022C33.3428 20.9235 33.4685 21.022 33.5014 21.0493C33.5451 21.0876 33.5943 21.1259 33.6381 21.1641C33.7201 21.2352 33.8021 21.3009 33.8787 21.3774C34.0646 21.547 34.2451 21.7165 34.4201 21.897C34.5678 22.0501 34.71 22.2141 34.8467 22.3782C34.885 22.422 34.9232 22.4712 34.9615 22.5149C34.9889 22.5477 35.0873 22.6735 34.9889 22.5477C35.0709 22.6516 35.1474 22.7556 35.224 22.8649C35.492 23.2477 35.7326 23.647 35.9459 24.0681C36.0006 24.1774 36.0498 24.2868 36.1045 24.3962C36.1264 24.4399 36.1428 24.4837 36.1646 24.5274C36.2631 24.7462 36.11 24.3743 36.1975 24.5985C36.285 24.8227 36.3725 25.0524 36.4435 25.2821C36.5912 25.7415 36.7006 26.2063 36.7771 26.6821C36.7881 26.7423 36.799 26.8079 36.8045 26.8681C36.7826 26.7095 36.799 26.8407 36.8045 26.8735C36.8154 26.9993 36.8318 27.1251 36.8428 27.2509C36.8482 27.4915 36.8592 27.7431 36.8592 28.0001C36.8592 28.4266 37.2365 28.8423 37.6795 28.8204C38.1225 28.7985 38.4998 28.4595 38.4998 28.0001C38.4889 25.8454 37.8326 23.6907 36.5693 21.9407C35.317 20.1962 33.5943 18.8782 31.5764 18.129C27.5076 16.6196 22.706 17.9157 19.9443 21.2626C18.5389 22.9634 17.6967 25.0306 17.5217 27.2345C17.3576 29.3727 17.8826 31.5657 18.9873 33.4032C20.0701 35.197 21.6998 36.679 23.6139 37.5431C25.6592 38.4618 27.9232 38.7243 30.1271 38.2813C34.3053 37.4446 37.7068 33.9118 38.3521 29.6899C38.4396 29.1266 38.4889 28.5634 38.4943 28.0001C38.4943 27.5735 38.117 27.1579 37.674 27.1798C37.231 27.2016 36.8592 27.5407 36.8592 28.0001Z" fill="#3743F9"/>
</svg>
