<svg width="63" height="63" viewBox="0 0 63 63" fill="none" xmlns="http://www.w3.org/2000/svg">
<path fill-rule="evenodd" clip-rule="evenodd" d="M29.4078 31.5467C31.3818 32.372 33.739 31.9774 35.3432 30.3675C37.4686 28.2342 37.4686 24.7734 35.3432 22.64C33.2201 20.5094 29.7803 20.5094 27.6572 22.64C26.5562 23.745 26.0249 25.2044 26.0651 26.6566C26.0851 27.3811 25.514 27.9848 24.7894 28.0048C24.0648 28.025 23.4611 27.4538 23.4411 26.729C23.3819 24.589 24.1669 22.424 25.7977 20.7873C28.9466 17.627 34.0538 17.627 37.2027 20.7873C40.3488 23.9449 40.3488 29.0626 37.2027 32.2202C34.821 34.6103 31.3206 35.1917 28.3953 33.9685C27.7265 33.6889 27.4109 32.9201 27.6908 32.2515C27.9703 31.5826 28.7392 31.2671 29.4078 31.5467ZM20.6149 13.7192C21.1284 14.2308 21.1299 15.0618 20.6183 15.5753C14.6051 21.6104 14.6051 31.397 20.6183 37.4322C21.1299 37.9456 21.1284 38.7767 20.6149 39.2883C20.1015 39.7999 19.2704 39.7986 18.7588 39.2849C11.7249 32.2255 11.7249 20.782 18.7588 13.7225C19.2704 13.209 20.1015 13.2075 20.6149 13.7192ZM42.386 13.7192C42.8995 13.2075 43.7306 13.209 44.2422 13.7225C51.2759 20.782 51.2759 32.2255 44.2422 39.2849C43.7306 39.7986 42.8995 39.7999 42.386 39.2883C41.8726 38.7767 41.871 37.9456 42.3826 37.4322C48.3957 31.397 48.3957 21.6104 42.3826 15.5753C41.871 15.0618 41.8726 14.2308 42.386 13.7192Z" fill="#3743F9"/>
<path fill-rule="evenodd" clip-rule="evenodd" d="M13.8648 6.94525C14.3783 7.45686 14.3798 8.28791 13.8682 8.80139C4.12726 18.5778 4.12726 34.4303 13.8682 44.2066C14.3798 44.7203 14.3783 45.5511 13.8648 46.0627C13.3514 46.5746 12.5203 46.573 12.0087 46.0596C1.2471 35.2587 1.2471 17.7493 12.0087 6.94861C12.5203 6.43511 13.3514 6.43361 13.8648 6.94525ZM49.1353 6.94525C49.6487 6.43361 50.4798 6.43511 50.9914 6.94861C61.7529 17.7493 61.7529 35.2587 50.9914 46.0596C50.4798 46.573 49.6487 46.5746 49.1353 46.0627C48.6216 45.5511 48.6203 44.7203 49.1319 44.2066C58.8727 34.4303 58.8727 18.5778 49.1319 8.80139C48.6203 8.28791 48.6216 7.45686 49.1353 6.94525ZM31.5 31.9659C32.2248 31.9659 32.8125 32.5534 32.8125 33.2784V56.4378C32.8125 57.1625 32.2248 57.7503 31.5 57.7503C30.7752 57.7503 30.1875 57.1625 30.1875 56.4378V33.2784C30.1875 32.5534 30.7752 31.9659 31.5 31.9659Z" fill="#3743F9"/>
</svg>
