<svg width="62" height="62" viewBox="0 0 62 62" fill="none" xmlns="http://www.w3.org/2000/svg">
<path d="M30.562 9.01736C30.2424 9.02685 29.9247 9.04331 29.609 9.06672C29.2603 9.09267 28.9983 9.39578 29.0242 9.74383C29.0483 10.0767 29.3267 10.3304 29.6545 10.3304C29.6697 10.3304 29.6862 10.3298 29.7013 10.3286C29.9988 10.307 30.2987 10.2912 30.5999 10.2824C30.9492 10.2716 31.2233 9.97987 31.2138 9.63119C31.203 9.28125 30.9195 9.0142 30.562 9.01736Z" fill="#3743F9"/>
<path d="M27.2997 9.36276C19.3098 10.8296 12.7178 16.8331 10.5055 24.6559C10.4105 24.992 10.6054 25.3419 10.9415 25.4368C11.0003 25.4533 11.0573 25.4609 11.1149 25.4609C11.3908 25.4609 11.6445 25.2786 11.723 24.9996C13.8056 17.6374 20.0097 11.9877 27.5287 10.6062C27.8724 10.543 28.0995 10.2133 28.0369 9.86964C27.9736 9.52729 27.6496 9.30074 27.2997 9.36276Z" fill="#3743F9"/>
<path d="M31.2109 6.47656C17.9516 6.47656 7.16406 17.2641 7.16406 30.5234C7.16406 43.7828 17.9516 54.5703 31.2109 54.5703C44.4703 54.5703 55.2578 43.7828 55.2578 30.5234C55.2578 17.2641 44.4703 6.47656 31.2109 6.47656ZM31.2109 53.3047C18.649 53.3047 8.42969 43.0854 8.42969 30.5234C8.42969 17.9615 18.649 7.74219 31.2109 7.74219C43.7729 7.74219 53.9922 17.9615 53.9922 30.5234C53.9922 43.0854 43.7729 53.3047 31.2109 53.3047Z" fill="#3743F9"/>
<path d="M57.5 30.5C57.5 45.4204 45.6269 57.5 31 57.5C16.3731 57.5 4.5 45.4204 4.5 30.5C4.5 15.5796 16.3731 3.5 31 3.5C45.6269 3.5 57.5 15.5796 57.5 30.5Z" stroke="#3743F9"/>
</svg>
