<svg width="60" height="60" viewBox="0 0 60 60" fill="none" xmlns="http://www.w3.org/2000/svg">
<path d="M31.9003 51.1906C31.0945 51.1906 30.4137 50.892 29.9279 50.3263C29.87 50.2709 29.6697 50.0804 28.9905 49.4393C28.4136 48.9001 27.5811 48.1967 26.4486 47.2919C25.365 46.4367 24.0378 45.4959 22.5079 44.4989C21.0206 43.5294 19.3171 42.6031 17.445 41.746C15.5887 40.8965 13.5853 40.1848 11.4904 39.6307C9.41316 39.074 7.22902 38.7922 4.99613 38.7922C4.22797 38.7922 3.54828 38.5051 3.03043 37.9618C2.52359 37.4231 2.25781 36.7647 2.25781 36.054V24.0911C2.25781 23.3706 2.51633 22.7299 3.02621 22.1871C3.54875 21.6396 4.22832 21.3529 4.99613 21.3529C7.22633 21.3529 9.41047 21.071 11.4881 20.5149C13.5862 19.96 15.5896 19.248 17.445 18.3984C19.302 17.5488 21.0036 16.6145 22.5027 15.6213C24.0407 14.6012 25.372 13.6571 26.459 12.8159C27.5775 11.9449 28.4034 11.2475 28.9818 10.6852C29.3321 10.3447 29.5892 10.0956 29.7518 9.93782C29.8524 9.84008 29.9158 9.77879 29.9414 9.75372C30.7002 8.94899 31.7478 8.71614 32.8862 9.11645C32.9131 9.12594 32.9395 9.13672 32.9652 9.14879C34.0223 9.64543 34.5811 10.5269 34.5811 11.6979V48.447C34.5811 49.0082 34.4377 49.5166 34.1553 49.9582C34.1531 49.9617 34.1509 49.9652 34.1485 49.9687C33.8495 50.4211 33.4367 50.7557 32.9216 50.9632C32.9145 50.966 32.9076 50.9687 32.9007 50.9713C32.4986 51.1209 32.1807 51.1906 31.9003 51.1906ZM31.8171 10.6092C31.5637 10.6092 31.362 10.7045 31.1634 10.9181C31.156 10.9257 31.1488 10.9334 31.1414 10.9408C31.1259 10.9562 31.0543 11.0258 30.9268 11.1494C30.7645 11.3068 30.508 11.5555 30.1583 11.8954C29.535 12.5012 28.6636 13.2383 27.494 14.1489C26.3728 15.0168 25.0078 15.9849 23.4352 17.0279C21.8628 18.0698 20.0838 19.047 18.1474 19.933C16.2051 20.8224 14.1106 21.5669 11.922 22.1458C9.70461 22.7393 7.37363 23.0406 4.99613 23.0406C4.68816 23.0406 4.45168 23.1382 4.25176 23.3475C4.04445 23.5682 3.94566 23.806 3.94566 24.091V36.0538C3.94566 36.3385 4.04422 36.5759 4.25598 36.8011C4.45461 37.0094 4.68406 37.1042 4.99613 37.1042C7.37656 37.1042 9.70766 37.4054 11.9247 37.9995C14.1096 38.5774 16.2041 39.3218 18.1476 40.2111C20.0957 41.1029 21.8728 42.0697 23.4297 43.0847C25.002 44.1093 26.3711 45.0801 27.4985 45.9699C28.6693 46.9054 29.5341 47.6368 30.1463 48.2088C31.0764 49.0868 31.1253 49.1356 31.1415 49.1517C31.1608 49.171 31.1793 49.1913 31.1968 49.2125C31.3152 49.3561 31.4914 49.5027 31.9004 49.5028C31.905 49.5027 32.0104 49.5005 32.3006 49.3936C32.4882 49.3162 32.6311 49.2014 32.7372 49.0432C32.8437 48.8743 32.8934 48.6846 32.8934 48.4469V11.6979C32.8934 11.2023 32.7167 10.9088 32.2857 10.6947C32.1137 10.638 31.9562 10.6092 31.8171 10.6092ZM47.4219 52.4134C47.1898 52.4134 46.9589 52.3183 46.7921 52.1318C46.4817 51.7842 46.5117 51.2506 46.8593 50.9401C49.8178 48.2971 52.1349 45.1237 53.7461 41.5078C55.3502 37.8988 56.1638 34.055 56.1638 30.0841C56.1638 26.0762 55.3502 22.211 53.7457 18.5961C52.1295 14.9749 49.8125 11.8032 46.8598 9.17059C46.5119 8.86051 46.4814 8.32696 46.7916 7.97903C47.1016 7.63133 47.6349 7.60051 47.9832 7.91082C51.1153 10.7033 53.5728 14.0674 55.2876 17.9097C56.9893 21.7433 57.8516 25.8388 57.8516 30.0841C57.8516 34.2928 56.9892 38.3673 55.2882 42.1941C53.5788 46.0302 51.1214 49.396 47.9838 52.199C47.8228 52.3426 47.6219 52.4134 47.4219 52.4134Z" fill="#3743F9"/>
<path d="M41.5963 47.9361C41.3644 47.9361 41.1334 47.8411 40.9666 47.6547C40.6561 47.3071 40.686 46.7735 41.0335 46.463C43.359 44.3849 45.1776 41.893 46.4392 39.0568C47.7008 36.2143 48.3406 33.1932 48.3406 30.0781C48.3406 26.9271 47.7009 23.8906 46.4392 21.0527C45.1793 18.2202 43.3603 15.7265 41.0327 13.6407C40.6856 13.3297 40.6563 12.7962 40.9673 12.4491C41.2783 12.1018 41.8119 12.0725 42.159 12.3837C44.6651 14.6292 46.624 17.3152 47.9814 20.3668C49.3397 23.4219 50.0284 26.6892 50.0284 30.0779C50.0284 33.4306 49.3398 36.682 47.9816 39.7422C46.6221 42.7986 44.6631 45.4831 42.1583 47.7216C41.9973 47.8654 41.7963 47.9361 41.5963 47.9361Z" fill="#3743F9"/>
</svg>
