<svg width="94" height="100" viewBox="0 0 94 100" fill="none" xmlns="http://www.w3.org/2000/svg">
<path d="M59.7549 76.4779H34.2451C31.9567 76.4779 30.1016 74.6228 30.1016 72.3344V21.6656C30.1016 19.3771 31.9567 17.522 34.2451 17.522H59.7549C62.0434 17.522 63.8985 19.3771 63.8985 21.6656V72.3344C63.8985 74.6228 62.0434 76.4779 59.7549 76.4779Z" stroke="#3743F9" stroke-width="1.2" stroke-miterlimit="10" stroke-linecap="round" stroke-linejoin="round"/>
<path d="M63.8985 24.978H30.1016V70.8423H63.8985V24.978Z" stroke="#3743F9" stroke-width="1.2" stroke-miterlimit="10" stroke-linecap="round" stroke-linejoin="round"/>
<path d="M41.5 36.5C40.7 36.5 39.1667 36.1667 38.5 36" stroke="#3743F9" stroke-width="1.2" stroke-linecap="round"/>
<path d="M48.0137 74.4389C48.5336 73.9732 48.5775 73.1742 48.1117 72.6543C47.646 72.1344 46.8469 72.0906 46.3271 72.5563C45.8072 73.0221 45.7633 73.8211 46.2291 74.341C46.6948 74.8608 47.4939 74.9047 48.0137 74.4389Z" fill="#3743F9"/>
<path d="M52.816 21.7738C53.2112 21.7738 53.5315 21.4856 53.5315 21.1301C53.5315 20.7745 53.2112 20.4863 52.816 20.4863C52.4209 20.4863 52.1006 20.7745 52.1006 21.1301C52.1006 21.4856 52.4209 21.7738 52.816 21.7738Z" fill="#3743F9"/>
<path d="M40.8096 21.1301H48.1005" stroke="#3743F9" stroke-width="1.2" stroke-miterlimit="10" stroke-linecap="round" stroke-linejoin="round"/>
<path d="M54.4999 46.5L50.9999 44L50 41.5L47 42.5L45.4999 41.5C44.6666 41.3333 43 41.2 43 42C43 42.8 41.9999 43.6666 41.4999 44H38C38.3333 45.1666 38.8999 47.6 38.4999 48C38.0999 48.4 38.6667 51 39 52L41.4999 51.5V54.5C41.4999 55 41.9999 57 41.9999 57.5C41.9999 57.9 44.3332 56 45.4999 55L48.5 57L52.9999 54L52.4999 49.5L54.4999 46.5Z" stroke="#3743F9" stroke-width="1.2" stroke-linejoin="round"/>
<path d="M54.5 46.5C55.7 46.5 59.6667 46.5 61.5 46.5" stroke="#3743F9" stroke-width="1.2" stroke-linecap="round"/>
<path d="M53 54L59 59" stroke="#3743F9" stroke-width="1.2" stroke-linecap="round"/>
<path d="M43 42C42.4286 36.9231 39.9524 33.2564 39 31" stroke="#3743F9" stroke-width="1.2" stroke-linecap="round"/>
<path d="M38 44L32 40.5" stroke="#3743F9" stroke-width="1.2" stroke-linecap="round"/>
<path d="M38 48.5H34.5" stroke="#3743F9" stroke-width="1.2" stroke-linecap="round"/>
<path d="M39 52C39 52.3733 35 56.8222 33 59" stroke="#3743F9" stroke-width="1.2" stroke-linecap="round"/>
<path d="M50 42L53 36L57 34" stroke="#3743F9" stroke-width="1.2" stroke-linecap="round"/>
<path d="M51 44C51.4 44 53.1667 42.6667 54 42" stroke="#3743F9" stroke-width="1.2" stroke-linecap="round"/>
<path d="M47.0002 42C46.6002 40.8 46.8335 39.8333 47.0002 39.5" stroke="#3743F9" stroke-width="1.2" stroke-linecap="round"/>
<path d="M52.5 49.5C53.7 49.9 55.3333 51 56 51.5" stroke="#3743F9" stroke-width="1.2" stroke-linecap="round"/>
<path d="M48.5 57C48.5 58.8333 49.7 62.3 50.5 63.5C51.3 64.7 51.8333 66.5 52.5 67" stroke="#3743F9" stroke-width="1.2" stroke-linecap="round"/>
<path d="M42 57.5L38 66" stroke="#3743F9" stroke-width="1.2" stroke-linecap="round"/>
<path d="M45.5 55.5V59.5" stroke="#3743F9" stroke-width="1.2" stroke-linecap="round"/>
</svg>
