<svg width="62" height="62" viewBox="0 0 62 62" fill="none" xmlns="http://www.w3.org/2000/svg">
<path d="M30.9842 17.0263C23.2697 17.0263 15.7725 19.784 9.87508 24.7889C9.48375 25.1184 9.43569 25.7089 9.76523 26.0979C9.95289 26.3176 10.2138 26.4275 10.477 26.4275C10.6898 26.4275 10.9049 26.3542 11.0765 26.2055C16.6399 21.4889 23.7091 18.8891 30.9842 18.8891C38.1701 18.8891 45.1706 21.4248 50.6905 26.027C51.0864 26.3565 51.6745 26.3016 52.0041 25.9103C52.3313 25.5144 52.2787 24.9285 51.8828 24.599C46.0288 19.7176 38.6049 17.0263 30.9842 17.0263ZM30.8835 52.4591C29.2999 52.4591 28.0137 51.1707 28.0137 49.5894C28.0137 48.0057 29.2999 46.7219 30.8835 46.7219C32.4626 46.7219 33.751 48.0057 33.751 49.5894C33.751 51.1707 32.4626 52.4591 30.8835 52.4591ZM30.8835 44.859C28.2746 44.859 26.1532 46.9805 26.1532 49.5894C26.1532 52.1982 28.2746 54.3174 30.8835 54.3174C33.4901 54.3174 35.6115 52.1982 35.6115 49.5894C35.6115 46.9805 33.4901 44.859 30.8835 44.859ZM57.5331 17.2391C50.1343 11.1403 40.7858 7.76476 31.1833 7.6961C31.1604 7.69382 31.1421 7.68237 31.1192 7.68237C31.0803 7.68237 31.0414 7.68695 31.0002 7.68695C30.9613 7.68695 30.9224 7.68237 30.8835 7.68237C30.8606 7.68237 30.84 7.69382 30.8171 7.6961C21.2123 7.76476 11.8684 11.1403 4.46736 17.2391C4.07145 17.5664 4.01424 18.1523 4.34149 18.5527C4.52457 18.7724 4.79004 18.8891 5.06008 18.8891C5.26834 18.8891 5.47888 18.8182 5.65051 18.674C12.7655 12.8109 21.7661 9.57496 31.0002 9.5475C40.2366 9.57496 49.235 12.8109 56.3499 18.674C56.5238 18.8182 56.7344 18.8891 56.9403 18.8891C57.2104 18.8891 57.4759 18.7724 57.6612 18.5527C57.9885 18.1523 57.9313 17.5664 57.5331 17.2391ZM30.9842 36.4099C27.3157 36.4099 23.899 37.8791 21.3611 40.5498C21.0063 40.9228 21.0224 41.5132 21.3954 41.8657C21.5739 42.035 21.805 42.1197 22.0362 42.1197C22.2833 42.1197 22.5282 42.0259 22.7113 41.8336C24.8922 39.536 27.8306 38.2704 30.9842 38.2704C34.1355 38.2704 37.0716 39.536 39.2525 41.8291C39.6118 42.2021 40.1954 42.2158 40.5707 41.8657C40.9414 41.5087 40.9575 40.9228 40.6028 40.5498C38.0648 37.8791 34.6481 36.4099 30.9842 36.4099ZM30.9842 26.4206C25.2538 26.4206 19.7362 28.5443 15.4476 32.4004C15.0677 32.7437 15.0334 33.3342 15.3812 33.7163C15.5643 33.92 15.8183 34.023 16.0723 34.023C16.292 34.023 16.5163 33.9475 16.6925 33.785C20.6402 30.2378 25.7138 28.2834 30.9842 28.2834C36.2523 28.2834 41.3259 30.2332 45.2713 33.7827C45.6535 34.126 46.2416 34.0939 46.5849 33.7118C46.9305 33.3296 46.8984 32.7414 46.5139 32.3959C42.2299 28.5443 36.7123 26.4206 30.9842 26.4206Z" fill="#3743F9"/>
</svg>
