<svg width="62" height="62" viewBox="0 0 62 62" fill="none" xmlns="http://www.w3.org/2000/svg">
<g clip-path="url(#clip0_299_67)">
<path d="M32.2399 47.058V53.32H40.9199C41.6019 53.32 42.1599 53.878 42.1599 54.56C42.1599 55.242 41.6019 55.7999 40.9199 55.7999H21.0799C20.3979 55.7999 19.8399 55.242 19.8399 54.56C19.8399 53.878 20.3979 53.32 21.0799 53.32H29.7599V47.058C21.4519 46.438 14.8799 39.432 14.8799 31C14.8799 30.318 15.4379 29.76 16.1199 29.76C16.8019 29.76 17.3599 30.318 17.3599 31C17.3599 38.502 23.4979 44.6399 30.9999 44.6399C38.5019 44.6399 44.6399 38.502 44.6399 31C44.6399 30.318 45.1979 29.76 45.8799 29.76C46.5619 29.76 47.1199 30.318 47.1199 31C47.1199 39.4939 40.5479 46.438 32.2399 47.058ZM40.2999 15.5V31C40.2999 36.146 36.1459 40.2999 30.9999 40.2999C25.8539 40.2999 21.6999 36.146 21.6999 31V15.5C21.6999 10.354 25.8539 6.19995 30.9999 6.19995C36.1459 6.19995 40.2999 10.354 40.2999 15.5ZM37.8199 15.5C37.8199 11.718 34.7819 8.67995 30.9999 8.67995C27.2179 8.67995 24.1799 11.718 24.1799 15.5V31C24.1799 34.782 27.2179 37.82 30.9999 37.82C34.7819 37.82 37.8199 34.782 37.8199 31V15.5Z" fill="#3743F9"/>
<path d="M672.08 -403V641.08H-434V-403H672.08ZM677.04 -407.96H-438.96V646.04H677.04V-407.96Z" fill="#0000FF"/>
</g>
<defs>
<clipPath id="clip0_299_67">
<rect width="62" height="62" fill="white"/>
</clipPath>
</defs>
</svg>
