<svg width="66" height="66" viewBox="0 0 66 66" fill="none" xmlns="http://www.w3.org/2000/svg">
<path d="M62.7598 16.606H58.0293V14.5537C58.0293 12.7729 56.5801 11.3242 54.7998 11.3242H50.25C48.4688 11.3242 47.0195 12.7729 47.0195 14.5537V16.606H42.3018C41.2051 16.606 40.3125 17.4985 40.3125 18.5957V58.5693C40.3125 58.9834 40.6484 59.3193 41.0625 59.3193H64C64.4141 59.3193 64.75 58.9834 64.75 58.5693V18.5957C64.75 17.4985 63.8574 16.606 62.7598 16.606ZM63.25 57.8193H41.8125V18.5957C41.8125 18.3257 42.0322 18.106 42.3018 18.106H47.7695C48.1836 18.106 48.5195 17.77 48.5195 17.356V14.5537C48.5195 13.6001 49.2959 12.8242 50.25 12.8242H54.7998C55.7539 12.8242 56.5293 13.6001 56.5293 14.5537V17.356C56.5293 17.77 56.8652 18.106 57.2793 18.106H62.7598C63.0303 18.106 63.25 18.3257 63.25 18.5957V57.8193Z" fill="#3743F9"/>
<path d="M60.2803 47.9844H44.7812C44.3672 47.9844 44.0312 48.3203 44.0312 48.7344V54.8501C44.0312 55.2642 44.3672 55.6001 44.7812 55.6001H60.2803C60.6943 55.6001 61.0303 55.2642 61.0303 54.8501V48.7344C61.0303 48.3203 60.6943 47.9844 60.2803 47.9844ZM59.5303 54.1001H45.5312V49.4844H59.5303V54.1001ZM60.2803 37.9878H44.7812C44.3672 37.9878 44.0312 38.3237 44.0312 38.7378V44.8535C44.0312 45.2676 44.3672 45.6035 44.7812 45.6035H60.2803C60.6943 45.6035 61.0303 45.2676 61.0303 44.8535V38.7378C61.0303 38.3237 60.6943 37.9878 60.2803 37.9878ZM59.5303 44.1035H45.5312V39.4878H59.5303V44.1035ZM60.2803 27.9912H44.7812C44.3672 27.9912 44.0312 28.3271 44.0312 28.7412V34.8569C44.0312 35.271 44.3672 35.6069 44.7812 35.6069H60.2803C60.6943 35.6069 61.0303 35.271 61.0303 34.8569V28.7412C61.0303 28.3271 60.6943 27.9912 60.2803 27.9912ZM59.5303 34.1069H45.5312V29.4912H59.5303V34.1069ZM6.78125 29.4912H7.61328V31.7852C7.61328 33.2048 8.70111 34.3622 10.084 34.5009V55.0825C10.084 57.4189 11.9844 59.3193 14.3213 59.3193C16.6582 59.3193 18.5586 57.4189 18.5586 55.0825V46.7939C18.5586 45.498 19.6123 44.4438 20.9082 44.4438C22.2041 44.4438 23.2578 45.498 23.2578 46.7939V52.6865C23.2578 54.8945 25.0547 56.6909 27.2627 56.6909H32.4287C32.8428 56.6909 33.1787 56.355 33.1787 55.9409C33.1787 55.5269 32.8428 55.1909 32.4287 55.1909H27.2627C25.8818 55.1909 24.7578 54.0674 24.7578 52.6865V46.7939C24.7578 44.6709 23.0312 42.9438 20.9082 42.9438C18.7852 42.9438 17.0586 44.6709 17.0586 46.7939V55.0825C17.0586 56.5918 15.8311 57.8193 14.3213 57.8193C12.8115 57.8193 11.584 56.5918 11.584 55.0825V34.5008C12.9673 34.3618 14.0547 33.2045 14.0547 31.7852V29.4912H14.8867C17.9365 29.4912 20.418 27.0098 20.418 23.96V15.0249C20.418 14.6108 20.082 14.2749 19.668 14.2749H16.1562V7.43066C16.1562 7.0166 15.8203 6.68066 15.4062 6.68066C14.9922 6.68066 14.6562 7.0166 14.6562 7.43066V14.2749H7.01172V7.43066C7.01172 7.0166 6.67578 6.68066 6.26172 6.68066C5.84766 6.68066 5.51172 7.0166 5.51172 7.43066V14.2749H2C1.58594 14.2749 1.25 14.6108 1.25 15.0249V23.96C1.25 27.0098 3.73145 29.4912 6.78125 29.4912ZM12.5547 31.7852C12.5547 32.4707 11.9971 33.0283 11.3115 33.0283H10.3555C9.6709 33.0283 9.11328 32.4707 9.11328 31.7852V29.4912H12.5547V31.7852ZM2.75 15.7749H18.918V23.96C18.918 26.1826 17.1094 27.9912 14.8867 27.9912C9.91764 27.9912 9.65186 27.9912 6.78125 27.9912C4.55859 27.9912 2.75 26.1826 2.75 23.96V15.7749Z" fill="#3743F9"/>
<path d="M23.51 35.1558L28.759 36.0689L26.7932 47.294C26.7346 47.6256 26.9045 47.9552 27.2082 48.1002C27.3117 48.1495 27.4221 48.1734 27.5315 48.1734C27.7424 48.1734 27.9504 48.0841 28.0959 47.9166L38.6975 35.7779C38.8762 35.5743 38.9309 35.2896 38.8401 35.0343C38.7492 34.7789 38.5285 34.5924 38.2619 34.546L33.0119 33.6329L34.9778 22.4205C35.0364 22.089 34.8664 21.7594 34.5627 21.6143C34.261 21.4713 33.8967 21.5445 33.675 21.7974L23.0744 33.9234C22.8957 34.1275 22.841 34.4117 22.9319 34.6671C23.0227 34.9229 23.2434 35.1095 23.51 35.1558ZM33.0373 24.8062L31.4055 34.1139C31.3703 34.3097 31.4153 34.5113 31.5305 34.6744C31.6448 34.8375 31.8196 34.9478 32.0149 34.982L36.6916 35.7955L28.7336 44.9068L30.3655 35.588C30.4006 35.3917 30.3557 35.19 30.2405 35.0274C30.1262 34.8643 29.9514 34.754 29.7561 34.7198L25.0813 33.9068L33.0373 24.8062Z" fill="#3743F9"/>
</svg>
