<svg width="61" height="61" viewBox="0 0 61 61" fill="none" xmlns="http://www.w3.org/2000/svg">
<path d="M13.749 50.9977C23.0298 60.2783 38.0753 60.2783 47.3561 50.9977C59.6034 38.7579 54.963 18.1891 39.1707 12.04M13.749 50.9977C23.0298 60.2783 38.0753 60.2783 47.356 50.9977C59.6129 38.7485 54.9534 18.1697 39.1514 12.04M13.749 50.9977C1.50916 38.7579 6.14957 18.1891 21.9443 12.04" stroke="#3743F9" stroke-width="2" stroke-miterlimit="2.613" stroke-linecap="round" stroke-linejoin="round"/>
<path d="M30.5524 35.8592C30.0784 35.8592 29.6943 35.4751 29.6943 35.0013V3.15359C29.6943 2.67964 30.0784 2.29565 30.5524 2.29565C31.0262 2.29565 31.4104 2.67976 31.4104 3.15359V35.0014C31.4104 35.4752 31.0262 35.8592 30.5524 35.8592Z" fill="#3743F9"/>
</svg>
