<svg width="79" height="79" viewBox="0 0 79 79" fill="none" xmlns="http://www.w3.org/2000/svg">
<mask id="path-1-inside-1_1034_3" fill="white">
<path d="M25.5436 55.876C25.5436 56.2134 25.272 56.4932 24.9346 56.5014C24.4656 56.5097 23.906 56.5179 23.3135 56.5343C22.3754 56.559 21.3138 56.5919 20.2111 56.5919C17.0182 56.5919 13.4961 56.3533 11.6692 55.086C7.71921 52.3457 7.6863 46.9391 7.65338 42.1662C7.65338 41.6231 7.64515 41.1047 7.63692 40.5944C7.5464 35.4018 7.97432 28.6457 10.55 25.9548C12.3769 24.0538 16.0471 24.0374 18.4747 24.0209C18.6887 24.0209 18.8944 24.0209 19.0919 24.0127C20.2111 23.9962 21.248 23.988 22.2602 23.9715C24.5643 23.9386 26.745 23.9139 29.4113 23.8892C29.4113 23.8892 29.4113 23.8892 29.4195 23.8892C29.7569 23.8892 30.0367 24.1608 30.0367 24.4982C30.0367 24.8356 29.7652 25.1154 29.4278 25.1236C26.7615 25.1483 24.5808 25.173 22.2766 25.2059C21.2644 25.2224 20.2275 25.2306 19.1084 25.247C18.9109 25.247 18.7052 25.247 18.483 25.2553C16.2611 25.2635 12.9036 25.2882 11.447 26.8106C9.6613 28.6704 8.75609 33.5585 8.87953 40.5698C8.88776 41.0882 8.89599 41.6066 8.89599 42.158C8.9289 46.6264 8.96182 51.6956 12.3852 54.0738C14.5083 55.5468 20.0054 55.3987 23.2888 55.3082C23.8895 55.2917 24.4491 55.2753 24.9264 55.2753H24.9346C25.2638 55.2671 25.5436 55.5386 25.5436 55.876ZM71.3801 43.9931C71.3883 44.1577 71.3389 44.3223 71.2237 44.4457C71.1085 44.5691 70.9521 44.6432 70.7876 44.6514C69.7754 44.6926 68.7879 44.7255 67.7921 44.7666C67.0186 44.7996 66.2533 44.8242 65.4715 44.8572C65.488 45.4826 65.5127 46.108 65.5373 46.7499C65.6608 49.8111 65.0271 52.107 63.5953 53.7858C61.6779 56.0324 58.6824 56.2463 55.7693 56.2792C50.7166 56.3204 46.421 56.3533 41.8785 56.3698C41.5411 56.3698 41.2613 56.0982 41.2613 55.7526C41.2613 55.4152 41.5329 55.1354 41.8785 55.1354C46.421 55.1189 50.7166 55.0942 55.7611 55.0449C58.3862 55.0202 61.0771 54.8391 62.6571 52.9876C63.8751 51.5557 64.4182 49.5396 64.303 46.7992C64.2701 45.9516 64.2454 45.1287 64.2207 44.2976C64.2207 44.2893 64.2207 44.2893 64.2207 44.2811C64.2207 44.2729 64.2207 44.2647 64.2207 44.2564C64.1795 42.6188 64.1548 40.973 64.1302 39.1708C64.0972 37.0477 64.0643 34.653 63.9903 31.8633C63.9409 30.1599 63.8915 28.226 62.9616 26.9176C61.4721 24.8274 57.9336 24.8521 56.765 24.8603C55.8516 24.8685 55.0945 24.8767 54.2222 24.885C52.6669 24.9014 50.7413 24.9261 46.8818 24.959C46.8818 24.959 46.8818 24.959 46.8736 24.959C46.5362 24.959 46.2564 24.6875 46.2564 24.3501C46.2564 24.0127 46.528 23.7329 46.8654 23.7247C50.7248 23.7 52.6505 23.6753 54.1975 23.6506C55.0781 23.6424 55.8269 23.6341 56.7486 23.6259C56.8144 23.6259 56.872 23.6259 56.9379 23.6259C60.4353 23.6259 62.7312 24.4653 63.9656 26.2016C65.1177 27.8228 65.1753 29.9541 65.2246 31.8304C65.2329 32.1595 65.2411 32.4805 65.2493 32.8014C65.9653 32.7767 66.6977 32.7603 67.4383 32.7356C68.4011 32.7027 69.3557 32.678 70.2773 32.6451C70.6065 32.6368 70.8863 32.8919 70.911 33.2211C71.0344 35.0233 71.092 36.8584 71.1496 38.6277C71.199 40.3969 71.2566 42.2074 71.3801 43.9931ZM70.1045 43.4417C70.0058 41.8453 69.9564 40.2324 69.907 38.6771C69.8577 37.1135 69.8083 35.5006 69.7095 33.9124C68.9771 33.9371 68.2201 33.9617 67.4712 33.9782C66.7306 34.0029 65.9899 34.0276 65.274 34.044C65.3152 35.9285 65.3398 37.6237 65.3563 39.1626C65.381 40.7343 65.3974 42.1909 65.4304 43.6228C66.2039 43.5899 66.9692 43.5652 67.7345 43.5323C68.5245 43.5076 69.3063 43.4747 70.1045 43.4417ZM51.7946 37.8377C44.0921 47.0132 39.1875 52.7325 32.1434 60.4514C31.7566 60.8793 31.2464 61.1015 30.7197 61.1015C30.3659 61.1015 30.0038 61.0028 29.6746 60.7888C28.8517 60.2786 28.539 59.324 28.9011 58.4188C29.8145 56.1147 30.6621 53.8763 31.485 51.7203C32.67 48.5932 33.8057 45.6142 34.8672 43.1537C33.2214 43.2278 31.485 43.2031 29.7981 43.1866C28.7036 43.1784 27.568 43.1619 26.4735 43.1784C26.4653 43.1784 26.457 43.1784 26.4488 43.1784C25.7246 43.1784 25.0581 42.7834 24.7207 42.1333C24.3833 41.4832 24.4327 40.7014 24.8606 40.1007C28.6624 34.76 35.6079 24.4406 39.4097 18.7707C39.9364 17.9807 40.8828 17.6927 41.7633 18.0548C42.6438 18.4168 43.1129 19.2809 42.94 20.2108C41.0803 30.1763 40.5454 33.5338 40.4055 34.6448C43.2528 34.7847 44.9562 34.7435 47.2686 34.6941C48.1409 34.6777 49.1284 34.653 50.2805 34.6365C50.2887 34.6365 50.2969 34.6365 50.3052 34.6365C51.0622 34.6365 51.737 35.0644 52.058 35.7475C52.3954 36.4469 52.2884 37.2452 51.7946 37.8377ZM50.947 36.2824C50.8236 36.0273 50.5767 35.8709 50.2969 35.8791C49.1448 35.8956 48.1656 35.9203 47.2933 35.9367C44.7998 35.9943 42.9977 36.0355 39.7307 35.8544C39.5496 35.8462 39.385 35.7557 39.2698 35.6158C39.0477 35.336 38.99 35.2537 39.9364 29.8389C40.3725 27.3373 40.9733 24.0291 41.7304 19.9968C41.8127 19.5772 41.5575 19.3138 41.3024 19.2068C41.0391 19.0999 40.6853 19.1163 40.4466 19.4702C36.6447 25.1483 29.6911 35.4759 25.8728 40.8249C25.7164 41.0471 25.6917 41.3268 25.8234 41.5655C25.9468 41.8041 26.1937 41.944 26.4653 41.944C27.568 41.9276 28.7118 41.944 29.8145 41.9523C31.8307 41.9769 33.9209 42.0016 35.7971 41.8617C35.8136 41.8617 35.83 41.8617 35.8383 41.8617C36.0358 41.8617 36.225 41.9605 36.3403 42.1251C36.4637 42.3061 36.4884 42.5365 36.3979 42.734C35.2375 45.3262 33.9703 48.6426 32.6371 52.1564C31.8142 54.3207 30.9666 56.559 30.0449 58.8714C29.8804 59.2747 30.0861 59.5874 30.333 59.7355C30.5798 59.8836 30.9419 59.933 31.2382 59.6121C38.2659 51.9096 43.1622 46.1985 50.8483 37.0394C51.0376 36.8255 51.0705 36.5375 50.947 36.2824Z"/>
</mask>
<path d="M25.5436 55.876C25.5436 56.2134 25.272 56.4932 24.9346 56.5014C24.4656 56.5097 23.906 56.5179 23.3135 56.5343C22.3754 56.559 21.3138 56.5919 20.2111 56.5919C17.0182 56.5919 13.4961 56.3533 11.6692 55.086C7.71921 52.3457 7.6863 46.9391 7.65338 42.1662C7.65338 41.6231 7.64515 41.1047 7.63692 40.5944C7.5464 35.4018 7.97432 28.6457 10.55 25.9548C12.3769 24.0538 16.0471 24.0374 18.4747 24.0209C18.6887 24.0209 18.8944 24.0209 19.0919 24.0127C20.2111 23.9962 21.248 23.988 22.2602 23.9715C24.5643 23.9386 26.745 23.9139 29.4113 23.8892C29.4113 23.8892 29.4113 23.8892 29.4195 23.8892C29.7569 23.8892 30.0367 24.1608 30.0367 24.4982C30.0367 24.8356 29.7652 25.1154 29.4278 25.1236C26.7615 25.1483 24.5808 25.173 22.2766 25.2059C21.2644 25.2224 20.2275 25.2306 19.1084 25.247C18.9109 25.247 18.7052 25.247 18.483 25.2553C16.2611 25.2635 12.9036 25.2882 11.447 26.8106C9.6613 28.6704 8.75609 33.5585 8.87953 40.5698C8.88776 41.0882 8.89599 41.6066 8.89599 42.158C8.9289 46.6264 8.96182 51.6956 12.3852 54.0738C14.5083 55.5468 20.0054 55.3987 23.2888 55.3082C23.8895 55.2917 24.4491 55.2753 24.9264 55.2753H24.9346C25.2638 55.2671 25.5436 55.5386 25.5436 55.876ZM71.3801 43.9931C71.3883 44.1577 71.3389 44.3223 71.2237 44.4457C71.1085 44.5691 70.9521 44.6432 70.7876 44.6514C69.7754 44.6926 68.7879 44.7255 67.7921 44.7666C67.0186 44.7996 66.2533 44.8242 65.4715 44.8572C65.488 45.4826 65.5127 46.108 65.5373 46.7499C65.6608 49.8111 65.0271 52.107 63.5953 53.7858C61.6779 56.0324 58.6824 56.2463 55.7693 56.2792C50.7166 56.3204 46.421 56.3533 41.8785 56.3698C41.5411 56.3698 41.2613 56.0982 41.2613 55.7526C41.2613 55.4152 41.5329 55.1354 41.8785 55.1354C46.421 55.1189 50.7166 55.0942 55.7611 55.0449C58.3862 55.0202 61.0771 54.8391 62.6571 52.9876C63.8751 51.5557 64.4182 49.5396 64.303 46.7992C64.2701 45.9516 64.2454 45.1287 64.2207 44.2976C64.2207 44.2893 64.2207 44.2893 64.2207 44.2811C64.2207 44.2729 64.2207 44.2647 64.2207 44.2564C64.1795 42.6188 64.1548 40.973 64.1302 39.1708C64.0972 37.0477 64.0643 34.653 63.9903 31.8633C63.9409 30.1599 63.8915 28.226 62.9616 26.9176C61.4721 24.8274 57.9336 24.8521 56.765 24.8603C55.8516 24.8685 55.0945 24.8767 54.2222 24.885C52.6669 24.9014 50.7413 24.9261 46.8818 24.959C46.8818 24.959 46.8818 24.959 46.8736 24.959C46.5362 24.959 46.2564 24.6875 46.2564 24.3501C46.2564 24.0127 46.528 23.7329 46.8654 23.7247C50.7248 23.7 52.6505 23.6753 54.1975 23.6506C55.0781 23.6424 55.8269 23.6341 56.7486 23.6259C56.8144 23.6259 56.872 23.6259 56.9379 23.6259C60.4353 23.6259 62.7312 24.4653 63.9656 26.2016C65.1177 27.8228 65.1753 29.9541 65.2246 31.8304C65.2329 32.1595 65.2411 32.4805 65.2493 32.8014C65.9653 32.7767 66.6977 32.7603 67.4383 32.7356C68.4011 32.7027 69.3557 32.678 70.2773 32.6451C70.6065 32.6368 70.8863 32.8919 70.911 33.2211C71.0344 35.0233 71.092 36.8584 71.1496 38.6277C71.199 40.3969 71.2566 42.2074 71.3801 43.9931ZM70.1045 43.4417C70.0058 41.8453 69.9564 40.2324 69.907 38.6771C69.8577 37.1135 69.8083 35.5006 69.7095 33.9124C68.9771 33.9371 68.2201 33.9617 67.4712 33.9782C66.7306 34.0029 65.9899 34.0276 65.274 34.044C65.3152 35.9285 65.3398 37.6237 65.3563 39.1626C65.381 40.7343 65.3974 42.1909 65.4304 43.6228C66.2039 43.5899 66.9692 43.5652 67.7345 43.5323C68.5245 43.5076 69.3063 43.4747 70.1045 43.4417ZM51.7946 37.8377C44.0921 47.0132 39.1875 52.7325 32.1434 60.4514C31.7566 60.8793 31.2464 61.1015 30.7197 61.1015C30.3659 61.1015 30.0038 61.0028 29.6746 60.7888C28.8517 60.2786 28.539 59.324 28.9011 58.4188C29.8145 56.1147 30.6621 53.8763 31.485 51.7203C32.67 48.5932 33.8057 45.6142 34.8672 43.1537C33.2214 43.2278 31.485 43.2031 29.7981 43.1866C28.7036 43.1784 27.568 43.1619 26.4735 43.1784C26.4653 43.1784 26.457 43.1784 26.4488 43.1784C25.7246 43.1784 25.0581 42.7834 24.7207 42.1333C24.3833 41.4832 24.4327 40.7014 24.8606 40.1007C28.6624 34.76 35.6079 24.4406 39.4097 18.7707C39.9364 17.9807 40.8828 17.6927 41.7633 18.0548C42.6438 18.4168 43.1129 19.2809 42.94 20.2108C41.0803 30.1763 40.5454 33.5338 40.4055 34.6448C43.2528 34.7847 44.9562 34.7435 47.2686 34.6941C48.1409 34.6777 49.1284 34.653 50.2805 34.6365C50.2887 34.6365 50.2969 34.6365 50.3052 34.6365C51.0622 34.6365 51.737 35.0644 52.058 35.7475C52.3954 36.4469 52.2884 37.2452 51.7946 37.8377ZM50.947 36.2824C50.8236 36.0273 50.5767 35.8709 50.2969 35.8791C49.1448 35.8956 48.1656 35.9203 47.2933 35.9367C44.7998 35.9943 42.9977 36.0355 39.7307 35.8544C39.5496 35.8462 39.385 35.7557 39.2698 35.6158C39.0477 35.336 38.99 35.2537 39.9364 29.8389C40.3725 27.3373 40.9733 24.0291 41.7304 19.9968C41.8127 19.5772 41.5575 19.3138 41.3024 19.2068C41.0391 19.0999 40.6853 19.1163 40.4466 19.4702C36.6447 25.1483 29.6911 35.4759 25.8728 40.8249C25.7164 41.0471 25.6917 41.3268 25.8234 41.5655C25.9468 41.8041 26.1937 41.944 26.4653 41.944C27.568 41.9276 28.7118 41.944 29.8145 41.9523C31.8307 41.9769 33.9209 42.0016 35.7971 41.8617C35.8136 41.8617 35.83 41.8617 35.8383 41.8617C36.0358 41.8617 36.225 41.9605 36.3403 42.1251C36.4637 42.3061 36.4884 42.5365 36.3979 42.734C35.2375 45.3262 33.9703 48.6426 32.6371 52.1564C31.8142 54.3207 30.9666 56.559 30.0449 58.8714C29.8804 59.2747 30.0861 59.5874 30.333 59.7355C30.5798 59.8836 30.9419 59.933 31.2382 59.6121C38.2659 51.9096 43.1622 46.1985 50.8483 37.0394C51.0376 36.8255 51.0705 36.5375 50.947 36.2824Z" fill="#3743F9" stroke="#3743F9" stroke-width="2" mask="url(#path-1-inside-1_1034_3)"/>
</svg>
